%TF.GenerationSoftware,KiCad,Pcbnew,8.0.2*%
%TF.CreationDate,2025-03-09T15:07:14+01:00*%
%TF.ProjectId,ledPcb,6c656450-6362-42e6-9b69-6361645f7063,rev?*%
%TF.SameCoordinates,Original*%
%TF.FileFunction,Legend,Bot*%
%TF.FilePolarity,Positive*%
%FSLAX46Y46*%
G04 Gerber Fmt 4.6, Leading zero omitted, Abs format (unit mm)*
G04 Created by KiCad (PCBNEW 8.0.2) date 2025-03-09 15:07:14*
%MOMM*%
%LPD*%
G01*
G04 APERTURE LIST*
%ADD10C,0.200000*%
%ADD11C,0.150000*%
%ADD12C,0.120000*%
%ADD13C,0.127000*%
G04 APERTURE END LIST*
D10*
G36*
X139429509Y-108155330D02*
G01*
X136438565Y-108155330D01*
X136438565Y-107019948D01*
X136549676Y-107019948D01*
X136549676Y-107058966D01*
X136564608Y-107095014D01*
X136592198Y-107122604D01*
X136628246Y-107137536D01*
X136667264Y-107137536D01*
X136703312Y-107122604D01*
X136718466Y-107110168D01*
X136747795Y-107079511D01*
X136850407Y-107044015D01*
X136913893Y-107042952D01*
X137020633Y-107077198D01*
X137087774Y-107142685D01*
X137123394Y-107211289D01*
X137166873Y-107378856D01*
X137168279Y-107497664D01*
X137128039Y-107664936D01*
X137092117Y-107739606D01*
X137024808Y-107808614D01*
X136921292Y-107844422D01*
X136857805Y-107845485D01*
X136750625Y-107811098D01*
X136703313Y-107765833D01*
X136667265Y-107750902D01*
X136628247Y-107750901D01*
X136592198Y-107765832D01*
X136564608Y-107793422D01*
X136549677Y-107829470D01*
X136549676Y-107868488D01*
X136564607Y-107904537D01*
X136577044Y-107919690D01*
X136615807Y-107956776D01*
X136616375Y-107957912D01*
X136622996Y-107963654D01*
X136639816Y-107979747D01*
X136643135Y-107981122D01*
X136645851Y-107983477D01*
X136663751Y-107991468D01*
X136806835Y-108037374D01*
X136818722Y-108042298D01*
X136823714Y-108042789D01*
X136825723Y-108043434D01*
X136828357Y-108043246D01*
X136838231Y-108044219D01*
X136934373Y-108042609D01*
X136945976Y-108043434D01*
X136950812Y-108042334D01*
X136952978Y-108042298D01*
X136955420Y-108041286D01*
X136965092Y-108039087D01*
X137093469Y-107994678D01*
X137095836Y-107994678D01*
X137107828Y-107989710D01*
X137125849Y-107983477D01*
X137128564Y-107981122D01*
X137131884Y-107979747D01*
X137147037Y-107967310D01*
X137241054Y-107870920D01*
X137250564Y-107862673D01*
X137253230Y-107858437D01*
X137254712Y-107856918D01*
X137255723Y-107854476D01*
X137261007Y-107846082D01*
X137304435Y-107755810D01*
X137309602Y-107748837D01*
X137314830Y-107734202D01*
X137315632Y-107732536D01*
X137315683Y-107731815D01*
X137316197Y-107730377D01*
X137360776Y-107545064D01*
X137364881Y-107535156D01*
X137366073Y-107523046D01*
X137366684Y-107520508D01*
X137366466Y-107519049D01*
X137366802Y-107515647D01*
X137365174Y-107378073D01*
X137366684Y-107367929D01*
X137364912Y-107355950D01*
X137364881Y-107353281D01*
X137364316Y-107351917D01*
X137363816Y-107348536D01*
X137316311Y-107165456D01*
X137315632Y-107155901D01*
X137310039Y-107141285D01*
X137309602Y-107139600D01*
X137309172Y-107139020D01*
X137308626Y-107137592D01*
X137259283Y-107042558D01*
X137254711Y-107031519D01*
X137251555Y-107027674D01*
X137250564Y-107025764D01*
X137248566Y-107024031D01*
X137245215Y-107019948D01*
X137549676Y-107019948D01*
X137549676Y-107058966D01*
X137564608Y-107095014D01*
X137592198Y-107122604D01*
X137628246Y-107137536D01*
X137667264Y-107137536D01*
X137703312Y-107122604D01*
X137718466Y-107110168D01*
X137747795Y-107079511D01*
X137850407Y-107044015D01*
X137913893Y-107042952D01*
X138020633Y-107077198D01*
X138087774Y-107142685D01*
X138123394Y-107211289D01*
X138166873Y-107378856D01*
X138168279Y-107497664D01*
X138128039Y-107664936D01*
X138092117Y-107739606D01*
X138024808Y-107808614D01*
X137921292Y-107844422D01*
X137857805Y-107845485D01*
X137750625Y-107811098D01*
X137703313Y-107765833D01*
X137667265Y-107750902D01*
X137628247Y-107750901D01*
X137592198Y-107765832D01*
X137564608Y-107793422D01*
X137549677Y-107829470D01*
X137549676Y-107868488D01*
X137564607Y-107904537D01*
X137577044Y-107919690D01*
X137615807Y-107956776D01*
X137616375Y-107957912D01*
X137622996Y-107963654D01*
X137639816Y-107979747D01*
X137643135Y-107981122D01*
X137645851Y-107983477D01*
X137663751Y-107991468D01*
X137806835Y-108037374D01*
X137818722Y-108042298D01*
X137823714Y-108042789D01*
X137825723Y-108043434D01*
X137828357Y-108043246D01*
X137838231Y-108044219D01*
X137934373Y-108042609D01*
X137945976Y-108043434D01*
X137950812Y-108042334D01*
X137952978Y-108042298D01*
X137955420Y-108041286D01*
X137965092Y-108039087D01*
X138093469Y-107994678D01*
X138095836Y-107994678D01*
X138107828Y-107989710D01*
X138125849Y-107983477D01*
X138128564Y-107981122D01*
X138131884Y-107979747D01*
X138147037Y-107967310D01*
X138241054Y-107870920D01*
X138250564Y-107862673D01*
X138253230Y-107858437D01*
X138254712Y-107856918D01*
X138255723Y-107854476D01*
X138261007Y-107846082D01*
X138304435Y-107755810D01*
X138309602Y-107748837D01*
X138314830Y-107734202D01*
X138315632Y-107732536D01*
X138315683Y-107731815D01*
X138316197Y-107730377D01*
X138360776Y-107545064D01*
X138364881Y-107535156D01*
X138366073Y-107523046D01*
X138366684Y-107520508D01*
X138366466Y-107519049D01*
X138366802Y-107515647D01*
X138365174Y-107378073D01*
X138366684Y-107367929D01*
X138364912Y-107355950D01*
X138364881Y-107353281D01*
X138364316Y-107351917D01*
X138363816Y-107348536D01*
X138316311Y-107165456D01*
X138315632Y-107155901D01*
X138310039Y-107141285D01*
X138309602Y-107139600D01*
X138309172Y-107139020D01*
X138308626Y-107137592D01*
X138259283Y-107042558D01*
X138254711Y-107031519D01*
X138251555Y-107027674D01*
X138250564Y-107025764D01*
X138248566Y-107024031D01*
X138242275Y-107016365D01*
X138181131Y-106956726D01*
X138453302Y-106956726D01*
X138457649Y-106975842D01*
X138788910Y-107963734D01*
X138789401Y-107970632D01*
X138794934Y-107981699D01*
X138798973Y-107993742D01*
X138803656Y-107999141D01*
X138806851Y-108005531D01*
X138816322Y-108013746D01*
X138824538Y-108023218D01*
X138830926Y-108026412D01*
X138836327Y-108031096D01*
X138848228Y-108035063D01*
X138859437Y-108040667D01*
X138866561Y-108041173D01*
X138873343Y-108043434D01*
X138885852Y-108042544D01*
X138898357Y-108043434D01*
X138905135Y-108041174D01*
X138912263Y-108040668D01*
X138923479Y-108035059D01*
X138935373Y-108031095D01*
X138940770Y-108026414D01*
X138947162Y-108023218D01*
X138955380Y-108013742D01*
X138964849Y-108005530D01*
X138968042Y-107999143D01*
X138972727Y-107993742D01*
X138980718Y-107975842D01*
X139318398Y-106956727D01*
X139315632Y-106917807D01*
X139298182Y-106882908D01*
X139268706Y-106857343D01*
X139231690Y-106845004D01*
X139192770Y-106847771D01*
X139157871Y-106865220D01*
X139132306Y-106894696D01*
X139124315Y-106912597D01*
X138886283Y-107630973D01*
X138639394Y-106894696D01*
X138613829Y-106865220D01*
X138578930Y-106847770D01*
X138540010Y-106845004D01*
X138502994Y-106857342D01*
X138473518Y-106882907D01*
X138456068Y-106917806D01*
X138453302Y-106956726D01*
X138181131Y-106956726D01*
X138156330Y-106932536D01*
X138155325Y-106930526D01*
X138145795Y-106922260D01*
X138131883Y-106908691D01*
X138128564Y-106907316D01*
X138125849Y-106904961D01*
X138107948Y-106896970D01*
X137964868Y-106851065D01*
X137952978Y-106846140D01*
X137947984Y-106845648D01*
X137945976Y-106845004D01*
X137943342Y-106845191D01*
X137933469Y-106844219D01*
X137837325Y-106845828D01*
X137825723Y-106845004D01*
X137820887Y-106846103D01*
X137818722Y-106846140D01*
X137816280Y-106847151D01*
X137806608Y-106849351D01*
X137678231Y-106893760D01*
X137675865Y-106893760D01*
X137663875Y-106898725D01*
X137645851Y-106904961D01*
X137643135Y-106907316D01*
X137639816Y-106908691D01*
X137624663Y-106921128D01*
X137564608Y-106983900D01*
X137549676Y-107019948D01*
X137245215Y-107019948D01*
X137242275Y-107016365D01*
X137156330Y-106932536D01*
X137155325Y-106930526D01*
X137145795Y-106922260D01*
X137131883Y-106908691D01*
X137128564Y-106907316D01*
X137125849Y-106904961D01*
X137107948Y-106896970D01*
X136964868Y-106851065D01*
X136952978Y-106846140D01*
X136947984Y-106845648D01*
X136945976Y-106845004D01*
X136943342Y-106845191D01*
X136933469Y-106844219D01*
X136837325Y-106845828D01*
X136825723Y-106845004D01*
X136820887Y-106846103D01*
X136818722Y-106846140D01*
X136816280Y-106847151D01*
X136806608Y-106849351D01*
X136678231Y-106893760D01*
X136675865Y-106893760D01*
X136663875Y-106898725D01*
X136645851Y-106904961D01*
X136643135Y-106907316D01*
X136639816Y-106908691D01*
X136624663Y-106921128D01*
X136564608Y-106983900D01*
X136549676Y-107019948D01*
X136438565Y-107019948D01*
X136438565Y-106733108D01*
X139429509Y-106733108D01*
X139429509Y-108155330D01*
G37*
G36*
X125505303Y-105928405D02*
G01*
X125531080Y-105953067D01*
X125562737Y-106014038D01*
X125563646Y-106203429D01*
X125534710Y-106263576D01*
X125510048Y-106289354D01*
X125450228Y-106320413D01*
X125306899Y-106321724D01*
X125247156Y-106292983D01*
X125221382Y-106268324D01*
X125190359Y-106208572D01*
X125188935Y-106017710D01*
X125217751Y-105957812D01*
X125242413Y-105932035D01*
X125302232Y-105900976D01*
X125445562Y-105899665D01*
X125505303Y-105928405D01*
G37*
G36*
X125873056Y-106631330D02*
G01*
X124879406Y-106631330D01*
X124879406Y-105991647D01*
X124990517Y-105991647D01*
X124992179Y-106214602D01*
X124991302Y-106217235D01*
X124992304Y-106231340D01*
X124992438Y-106249251D01*
X124993813Y-106252571D01*
X124994068Y-106256155D01*
X125001074Y-106274463D01*
X125050411Y-106369487D01*
X125054988Y-106380537D01*
X125058146Y-106384385D01*
X125059136Y-106386291D01*
X125061130Y-106388020D01*
X125067425Y-106395690D01*
X125117525Y-106443623D01*
X125124443Y-106451600D01*
X125128592Y-106454211D01*
X125130197Y-106455747D01*
X125132637Y-106456757D01*
X125141034Y-106462043D01*
X125224051Y-106501981D01*
X125225436Y-106503366D01*
X125236185Y-106507818D01*
X125254580Y-106516668D01*
X125258163Y-106516922D01*
X125261484Y-106518298D01*
X125280993Y-106520219D01*
X125456500Y-106518613D01*
X125458962Y-106519434D01*
X125472577Y-106518466D01*
X125490978Y-106518298D01*
X125494298Y-106516922D01*
X125497882Y-106516668D01*
X125516190Y-106509662D01*
X125611218Y-106460322D01*
X125622265Y-106455747D01*
X125626111Y-106452589D01*
X125628018Y-106451600D01*
X125629748Y-106449605D01*
X125637418Y-106443310D01*
X125685351Y-106393207D01*
X125693326Y-106386292D01*
X125695937Y-106382142D01*
X125697474Y-106380537D01*
X125698485Y-106378095D01*
X125703769Y-106369701D01*
X125743707Y-106286683D01*
X125745092Y-106285299D01*
X125749544Y-106274549D01*
X125758394Y-106256155D01*
X125758648Y-106252571D01*
X125760024Y-106249251D01*
X125761945Y-106229742D01*
X125760867Y-106005032D01*
X125761160Y-106004154D01*
X125760841Y-105999670D01*
X125760148Y-105855209D01*
X125761827Y-105843929D01*
X125760036Y-105831819D01*
X125760024Y-105829281D01*
X125759459Y-105827917D01*
X125758959Y-105824536D01*
X125709418Y-105633611D01*
X125706754Y-105620142D01*
X125705136Y-105617107D01*
X125704745Y-105615600D01*
X125703273Y-105613613D01*
X125697531Y-105602844D01*
X125605474Y-105467720D01*
X125602235Y-105459899D01*
X125589942Y-105444922D01*
X125589873Y-105444820D01*
X125589841Y-105444798D01*
X125589798Y-105444746D01*
X125539697Y-105396814D01*
X125532780Y-105388838D01*
X125528630Y-105386225D01*
X125527026Y-105384691D01*
X125524586Y-105383680D01*
X125516190Y-105378395D01*
X125433172Y-105338456D01*
X125431788Y-105337072D01*
X125421038Y-105332619D01*
X125402644Y-105323770D01*
X125399060Y-105323515D01*
X125395740Y-105322140D01*
X125376231Y-105320219D01*
X125166246Y-105322140D01*
X125130198Y-105337072D01*
X125102608Y-105364662D01*
X125087676Y-105400710D01*
X125087676Y-105439728D01*
X125102608Y-105475776D01*
X125130198Y-105503366D01*
X125166246Y-105518298D01*
X125185755Y-105520219D01*
X125350324Y-105518713D01*
X125410065Y-105547453D01*
X125438282Y-105574449D01*
X125520615Y-105695300D01*
X125526450Y-105717785D01*
X125516276Y-105713571D01*
X125497882Y-105704722D01*
X125494298Y-105704467D01*
X125490978Y-105703092D01*
X125471469Y-105701171D01*
X125295961Y-105702776D01*
X125293500Y-105701956D01*
X125279884Y-105702923D01*
X125261484Y-105703092D01*
X125258163Y-105704467D01*
X125254580Y-105704722D01*
X125236271Y-105711728D01*
X125141237Y-105761070D01*
X125130197Y-105765643D01*
X125126351Y-105768798D01*
X125124443Y-105769790D01*
X125122710Y-105771787D01*
X125115044Y-105778080D01*
X125067112Y-105828180D01*
X125059136Y-105835098D01*
X125056523Y-105839247D01*
X125054989Y-105840852D01*
X125053978Y-105843291D01*
X125048693Y-105851688D01*
X125008754Y-105934705D01*
X125007370Y-105936090D01*
X125002917Y-105946839D01*
X124994068Y-105965234D01*
X124993813Y-105968817D01*
X124992438Y-105972138D01*
X124990517Y-105991647D01*
X124879406Y-105991647D01*
X124879406Y-105209108D01*
X125873056Y-105209108D01*
X125873056Y-106631330D01*
G37*
G36*
X131206271Y-106502409D02*
G01*
X130167708Y-106502409D01*
X130167708Y-105940376D01*
X130278819Y-105940376D01*
X130278819Y-105979394D01*
X130293751Y-106015442D01*
X130321341Y-106043032D01*
X130357389Y-106057964D01*
X130376898Y-106059885D01*
X130420967Y-106059752D01*
X130421676Y-106312728D01*
X130436608Y-106348776D01*
X130464198Y-106376366D01*
X130500246Y-106391298D01*
X130539264Y-106391298D01*
X130575312Y-106376366D01*
X130602902Y-106348776D01*
X130617834Y-106312728D01*
X130619755Y-106293219D01*
X130619099Y-106059156D01*
X130993406Y-106058030D01*
X131008452Y-106059100D01*
X131011827Y-106057974D01*
X131015454Y-106057964D01*
X131030266Y-106051828D01*
X131045468Y-106046761D01*
X131048181Y-106044407D01*
X131051502Y-106043032D01*
X131062840Y-106031693D01*
X131074944Y-106021196D01*
X131076550Y-106017983D01*
X131079092Y-106015442D01*
X131085228Y-106000627D01*
X131092394Y-105986297D01*
X131092648Y-105982714D01*
X131094024Y-105979394D01*
X131094024Y-105963361D01*
X131095160Y-105947377D01*
X131094024Y-105942381D01*
X131094024Y-105940376D01*
X131093012Y-105937934D01*
X131090813Y-105928262D01*
X130844727Y-105196077D01*
X130819162Y-105166601D01*
X130784263Y-105149151D01*
X130745343Y-105146385D01*
X130708327Y-105158723D01*
X130678851Y-105184288D01*
X130661401Y-105219187D01*
X130658635Y-105258107D01*
X130662982Y-105277223D01*
X130858952Y-105860297D01*
X130618545Y-105861020D01*
X130617834Y-105607043D01*
X130602902Y-105570995D01*
X130575312Y-105543405D01*
X130539264Y-105528473D01*
X130500246Y-105528473D01*
X130464198Y-105543405D01*
X130436608Y-105570995D01*
X130421676Y-105607043D01*
X130419755Y-105626552D01*
X130420413Y-105861616D01*
X130357389Y-105861806D01*
X130321341Y-105876738D01*
X130293751Y-105904328D01*
X130278819Y-105940376D01*
X130167708Y-105940376D01*
X130167708Y-105035274D01*
X131206271Y-105035274D01*
X131206271Y-106502409D01*
G37*
G36*
X136205754Y-106631330D02*
G01*
X135166406Y-106631330D01*
X135166406Y-105610695D01*
X135277517Y-105610695D01*
X135279126Y-105706837D01*
X135278302Y-105718440D01*
X135279401Y-105723276D01*
X135279438Y-105725442D01*
X135280449Y-105727884D01*
X135282649Y-105737556D01*
X135327057Y-105865930D01*
X135327057Y-105868299D01*
X135332026Y-105880295D01*
X135338259Y-105898313D01*
X135340614Y-105901028D01*
X135341989Y-105904347D01*
X135354425Y-105919501D01*
X135757729Y-106320937D01*
X135358008Y-106322140D01*
X135321960Y-106337072D01*
X135294370Y-106364662D01*
X135279438Y-106400710D01*
X135279438Y-106439728D01*
X135294370Y-106475776D01*
X135321960Y-106503366D01*
X135358008Y-106518298D01*
X135377517Y-106520219D01*
X136016073Y-106518298D01*
X136052121Y-106503366D01*
X136079711Y-106475776D01*
X136094643Y-106439728D01*
X136094643Y-106400710D01*
X136079711Y-106364662D01*
X136067275Y-106349508D01*
X135513464Y-105798262D01*
X135477313Y-105693756D01*
X135476344Y-105635908D01*
X135504751Y-105576860D01*
X135529413Y-105551083D01*
X135589161Y-105520061D01*
X135780024Y-105518637D01*
X135839922Y-105547453D01*
X135893387Y-105598604D01*
X135929436Y-105613535D01*
X135968454Y-105613535D01*
X136004502Y-105598604D01*
X136032092Y-105571014D01*
X136047023Y-105534966D01*
X136047023Y-105495948D01*
X136032092Y-105459899D01*
X136019655Y-105444746D01*
X135969554Y-105396814D01*
X135962637Y-105388838D01*
X135958487Y-105386225D01*
X135956883Y-105384691D01*
X135954443Y-105383680D01*
X135946047Y-105378395D01*
X135863029Y-105338456D01*
X135861645Y-105337072D01*
X135850895Y-105332619D01*
X135832501Y-105323770D01*
X135828917Y-105323515D01*
X135825597Y-105322140D01*
X135806088Y-105320219D01*
X135583132Y-105321881D01*
X135580500Y-105321004D01*
X135566394Y-105322006D01*
X135548484Y-105322140D01*
X135545163Y-105323515D01*
X135541580Y-105323770D01*
X135523271Y-105330776D01*
X135428237Y-105380118D01*
X135417197Y-105384691D01*
X135413351Y-105387846D01*
X135411443Y-105388838D01*
X135409710Y-105390835D01*
X135402044Y-105397128D01*
X135354112Y-105447228D01*
X135346136Y-105454146D01*
X135343523Y-105458295D01*
X135341989Y-105459900D01*
X135340978Y-105462339D01*
X135335693Y-105470736D01*
X135295754Y-105553753D01*
X135294370Y-105555138D01*
X135289917Y-105565887D01*
X135281068Y-105584282D01*
X135280813Y-105587865D01*
X135279438Y-105591186D01*
X135277517Y-105610695D01*
X135166406Y-105610695D01*
X135166406Y-105209108D01*
X136205754Y-105209108D01*
X136205754Y-106631330D01*
G37*
G36*
X128539589Y-106504330D02*
G01*
X127546406Y-106504330D01*
X127546406Y-105864647D01*
X127657517Y-105864647D01*
X127659179Y-106087602D01*
X127658302Y-106090235D01*
X127659304Y-106104340D01*
X127659438Y-106122251D01*
X127660813Y-106125571D01*
X127661068Y-106129155D01*
X127668074Y-106147463D01*
X127717411Y-106242487D01*
X127721988Y-106253537D01*
X127725146Y-106257385D01*
X127726136Y-106259291D01*
X127728130Y-106261020D01*
X127734425Y-106268690D01*
X127784525Y-106316623D01*
X127791443Y-106324600D01*
X127795592Y-106327211D01*
X127797197Y-106328747D01*
X127799637Y-106329757D01*
X127808034Y-106335043D01*
X127891051Y-106374981D01*
X127892436Y-106376366D01*
X127903185Y-106380818D01*
X127921580Y-106389668D01*
X127925163Y-106389922D01*
X127928484Y-106391298D01*
X127947993Y-106393219D01*
X128170948Y-106391556D01*
X128173581Y-106392434D01*
X128187686Y-106391431D01*
X128205597Y-106391298D01*
X128208917Y-106389922D01*
X128212501Y-106389668D01*
X128230809Y-106382662D01*
X128325837Y-106333322D01*
X128336884Y-106328747D01*
X128340730Y-106325589D01*
X128342637Y-106324600D01*
X128344367Y-106322605D01*
X128352037Y-106316310D01*
X128412093Y-106253537D01*
X128427024Y-106217488D01*
X128427023Y-106178470D01*
X128412092Y-106142422D01*
X128384501Y-106114832D01*
X128348453Y-106099901D01*
X128309435Y-106099902D01*
X128273387Y-106114833D01*
X128258233Y-106127270D01*
X128224667Y-106162354D01*
X128164918Y-106193376D01*
X127974056Y-106194800D01*
X127914156Y-106165983D01*
X127888382Y-106141324D01*
X127857359Y-106081572D01*
X127855935Y-105890710D01*
X127884751Y-105830812D01*
X127909413Y-105805035D01*
X127969161Y-105774013D01*
X128160024Y-105772589D01*
X128219922Y-105801405D01*
X128250505Y-105830665D01*
X128251739Y-105832964D01*
X128259815Y-105839571D01*
X128273387Y-105852556D01*
X128278041Y-105854483D01*
X128281937Y-105857671D01*
X128295930Y-105861893D01*
X128309436Y-105867487D01*
X128314470Y-105867487D01*
X128319292Y-105868942D01*
X128333843Y-105867487D01*
X128348454Y-105867487D01*
X128353103Y-105865561D01*
X128358116Y-105865060D01*
X128370999Y-105858148D01*
X128384502Y-105852556D01*
X128388062Y-105848995D01*
X128392500Y-105846615D01*
X128401755Y-105835302D01*
X128412092Y-105824966D01*
X128414019Y-105820313D01*
X128417207Y-105816417D01*
X128421429Y-105802422D01*
X128427023Y-105788918D01*
X128427023Y-105783884D01*
X128428478Y-105779062D01*
X128428449Y-105759459D01*
X128379405Y-105287417D01*
X128379405Y-105273710D01*
X128377504Y-105269120D01*
X128376977Y-105264048D01*
X128370067Y-105251167D01*
X128364473Y-105237662D01*
X128360912Y-105234101D01*
X128358532Y-105229664D01*
X128347219Y-105220408D01*
X128336883Y-105210072D01*
X128332230Y-105208144D01*
X128328334Y-105204957D01*
X128314344Y-105200736D01*
X128300835Y-105195140D01*
X128293357Y-105194403D01*
X128290979Y-105193686D01*
X128288542Y-105193929D01*
X128281326Y-105193219D01*
X127785627Y-105195140D01*
X127749579Y-105210072D01*
X127721989Y-105237662D01*
X127707057Y-105273710D01*
X127707057Y-105312728D01*
X127721989Y-105348776D01*
X127749579Y-105376366D01*
X127785627Y-105391298D01*
X127805136Y-105393219D01*
X128191022Y-105391723D01*
X128210331Y-105577567D01*
X128208917Y-105577467D01*
X128205597Y-105576092D01*
X128186088Y-105574171D01*
X127963132Y-105575833D01*
X127960500Y-105574956D01*
X127946394Y-105575958D01*
X127928484Y-105576092D01*
X127925163Y-105577467D01*
X127921580Y-105577722D01*
X127903271Y-105584728D01*
X127808237Y-105634070D01*
X127797197Y-105638643D01*
X127793351Y-105641798D01*
X127791443Y-105642790D01*
X127789710Y-105644787D01*
X127782044Y-105651080D01*
X127734112Y-105701180D01*
X127726136Y-105708098D01*
X127723523Y-105712247D01*
X127721989Y-105713852D01*
X127720978Y-105716291D01*
X127715693Y-105724688D01*
X127675754Y-105807705D01*
X127674370Y-105809090D01*
X127669917Y-105819839D01*
X127661068Y-105838234D01*
X127660813Y-105841817D01*
X127659438Y-105845138D01*
X127657517Y-105864647D01*
X127546406Y-105864647D01*
X127546406Y-105082108D01*
X128539589Y-105082108D01*
X128539589Y-106504330D01*
G37*
G36*
X133538754Y-106504330D02*
G01*
X132499406Y-106504330D01*
X132499406Y-105864647D01*
X132610517Y-105864647D01*
X132612179Y-106087602D01*
X132611302Y-106090235D01*
X132612304Y-106104340D01*
X132612438Y-106122251D01*
X132613813Y-106125571D01*
X132614068Y-106129155D01*
X132621074Y-106147463D01*
X132670411Y-106242487D01*
X132674988Y-106253537D01*
X132678146Y-106257385D01*
X132679136Y-106259291D01*
X132681130Y-106261020D01*
X132687425Y-106268690D01*
X132737525Y-106316623D01*
X132744443Y-106324600D01*
X132748592Y-106327211D01*
X132750197Y-106328747D01*
X132752637Y-106329757D01*
X132761034Y-106335043D01*
X132844051Y-106374981D01*
X132845436Y-106376366D01*
X132856185Y-106380818D01*
X132874580Y-106389668D01*
X132878163Y-106389922D01*
X132881484Y-106391298D01*
X132900993Y-106393219D01*
X133171448Y-106391516D01*
X133174200Y-106392434D01*
X133188626Y-106391408D01*
X133206216Y-106391298D01*
X133209536Y-106389922D01*
X133213120Y-106389668D01*
X133231428Y-106382662D01*
X133326456Y-106333322D01*
X133337503Y-106328747D01*
X133341349Y-106325589D01*
X133343256Y-106324600D01*
X133344986Y-106322605D01*
X133352656Y-106316310D01*
X133412712Y-106253537D01*
X133427643Y-106217488D01*
X133427642Y-106178470D01*
X133412711Y-106142422D01*
X133385120Y-106114832D01*
X133349072Y-106099901D01*
X133310054Y-106099902D01*
X133274006Y-106114833D01*
X133258852Y-106127270D01*
X133225286Y-106162354D01*
X133165585Y-106193351D01*
X132927165Y-106194852D01*
X132867156Y-106165983D01*
X132841382Y-106141324D01*
X132810359Y-106081572D01*
X132808935Y-105890710D01*
X132837751Y-105830812D01*
X132862413Y-105805035D01*
X132922344Y-105773918D01*
X133044021Y-105772478D01*
X133056792Y-105773330D01*
X133059863Y-105772291D01*
X133063359Y-105772250D01*
X133078362Y-105766035D01*
X133093754Y-105760830D01*
X133096293Y-105758607D01*
X133099407Y-105757318D01*
X133110884Y-105745840D01*
X133123118Y-105735136D01*
X133124613Y-105732111D01*
X133126997Y-105729728D01*
X133133211Y-105714726D01*
X133140414Y-105700161D01*
X133140638Y-105696795D01*
X133141929Y-105693680D01*
X133141929Y-105677431D01*
X133143009Y-105661229D01*
X133141929Y-105658035D01*
X133141929Y-105654662D01*
X133135713Y-105639656D01*
X133130509Y-105624268D01*
X133127727Y-105620377D01*
X133126997Y-105618614D01*
X133125137Y-105616754D01*
X133119108Y-105608321D01*
X132928922Y-105392561D01*
X133349073Y-105391298D01*
X133385121Y-105376366D01*
X133412711Y-105348776D01*
X133427643Y-105312728D01*
X133427643Y-105273710D01*
X133412711Y-105237662D01*
X133385121Y-105210072D01*
X133349073Y-105195140D01*
X133329564Y-105193219D01*
X132712794Y-105195074D01*
X132697575Y-105194060D01*
X132694411Y-105195129D01*
X132691008Y-105195140D01*
X132676002Y-105201355D01*
X132660614Y-105206560D01*
X132658074Y-105208781D01*
X132654960Y-105210072D01*
X132643475Y-105221556D01*
X132631250Y-105232254D01*
X132629754Y-105235277D01*
X132627370Y-105237662D01*
X132621153Y-105252668D01*
X132613953Y-105267229D01*
X132613728Y-105270594D01*
X132612438Y-105273710D01*
X132612438Y-105289958D01*
X132611358Y-105306161D01*
X132612438Y-105309354D01*
X132612438Y-105312728D01*
X132618653Y-105327733D01*
X132623858Y-105343122D01*
X132626639Y-105347012D01*
X132627370Y-105348776D01*
X132629229Y-105350635D01*
X132635259Y-105359069D01*
X132841109Y-105592599D01*
X132761237Y-105634070D01*
X132750197Y-105638643D01*
X132746351Y-105641798D01*
X132744443Y-105642790D01*
X132742710Y-105644787D01*
X132735044Y-105651080D01*
X132687112Y-105701180D01*
X132679136Y-105708098D01*
X132676523Y-105712247D01*
X132674989Y-105713852D01*
X132673978Y-105716291D01*
X132668693Y-105724688D01*
X132628754Y-105807705D01*
X132627370Y-105809090D01*
X132622917Y-105819839D01*
X132614068Y-105838234D01*
X132613813Y-105841817D01*
X132612438Y-105845138D01*
X132610517Y-105864647D01*
X132499406Y-105864647D01*
X132499406Y-105082108D01*
X133538754Y-105082108D01*
X133538754Y-106504330D01*
G37*
G36*
X124378303Y-96482786D02*
G01*
X124404080Y-96507448D01*
X124435077Y-96567148D01*
X124436578Y-96805569D01*
X124407710Y-96865576D01*
X124383048Y-96891354D01*
X124323116Y-96922471D01*
X124227270Y-96923605D01*
X124167775Y-96894983D01*
X124142001Y-96870324D01*
X124111003Y-96810620D01*
X124109502Y-96572200D01*
X124138370Y-96512193D01*
X124163032Y-96486416D01*
X124222963Y-96455299D01*
X124318810Y-96454165D01*
X124378303Y-96482786D01*
G37*
G36*
X125389023Y-96922952D02*
G01*
X125269910Y-96923840D01*
X125162065Y-96889240D01*
X125094926Y-96823752D01*
X125059305Y-96755145D01*
X125015826Y-96587580D01*
X125014420Y-96468773D01*
X125054660Y-96301500D01*
X125090582Y-96226830D01*
X125157889Y-96157824D01*
X125261073Y-96122130D01*
X125387512Y-96121187D01*
X125389023Y-96922952D01*
G37*
G36*
X125698437Y-97233330D02*
G01*
X122230517Y-97233330D01*
X122230517Y-96336043D01*
X122341628Y-96336043D01*
X122341628Y-96375061D01*
X122356560Y-96411109D01*
X122384150Y-96438699D01*
X122420198Y-96453631D01*
X122439707Y-96455552D01*
X122578750Y-96454885D01*
X122579622Y-96852801D01*
X122556930Y-96899970D01*
X122513384Y-96922579D01*
X122420198Y-96924140D01*
X122384150Y-96939072D01*
X122356560Y-96966662D01*
X122341628Y-97002710D01*
X122341628Y-97041728D01*
X122356560Y-97077776D01*
X122384150Y-97105366D01*
X122420198Y-97120298D01*
X122439707Y-97122219D01*
X122520724Y-97120862D01*
X122522438Y-97121434D01*
X122533482Y-97120649D01*
X122554454Y-97120298D01*
X122557774Y-97118922D01*
X122561358Y-97118668D01*
X122579666Y-97111662D01*
X122670260Y-97064624D01*
X122679706Y-97061476D01*
X122684749Y-97057101D01*
X122691494Y-97053600D01*
X122699709Y-97044126D01*
X122709183Y-97035911D01*
X122715396Y-97026039D01*
X122717059Y-97024123D01*
X122717571Y-97022584D01*
X122719626Y-97019321D01*
X122759564Y-96936302D01*
X122760949Y-96934918D01*
X122765401Y-96924169D01*
X122774251Y-96905774D01*
X122774505Y-96902190D01*
X122775881Y-96898870D01*
X122777802Y-96879361D01*
X122776869Y-96453934D01*
X122840168Y-96453631D01*
X122876216Y-96438699D01*
X122903806Y-96411109D01*
X122918738Y-96375061D01*
X122918738Y-96355552D01*
X123053993Y-96355552D01*
X123055914Y-97041728D01*
X123070846Y-97077776D01*
X123098436Y-97105366D01*
X123134484Y-97120298D01*
X123173502Y-97120298D01*
X123209550Y-97105366D01*
X123220345Y-97094570D01*
X123239908Y-97103981D01*
X123241293Y-97105366D01*
X123252042Y-97109818D01*
X123270437Y-97118668D01*
X123274020Y-97118922D01*
X123277341Y-97120298D01*
X123296850Y-97122219D01*
X123425006Y-97120702D01*
X123427200Y-97121434D01*
X123439982Y-97120525D01*
X123459216Y-97120298D01*
X123462536Y-97118922D01*
X123466120Y-97118668D01*
X123484428Y-97111662D01*
X123575022Y-97064624D01*
X123584468Y-97061476D01*
X123589511Y-97057101D01*
X123596256Y-97053600D01*
X123604471Y-97044126D01*
X123613945Y-97035911D01*
X123620158Y-97026039D01*
X123621821Y-97024123D01*
X123622333Y-97022584D01*
X123624388Y-97019321D01*
X123664326Y-96936302D01*
X123665711Y-96934918D01*
X123670163Y-96924169D01*
X123679013Y-96905774D01*
X123679267Y-96902190D01*
X123680643Y-96898870D01*
X123682564Y-96879361D01*
X123681385Y-96546028D01*
X123911136Y-96546028D01*
X123912838Y-96816483D01*
X123911921Y-96819235D01*
X123912946Y-96833661D01*
X123913057Y-96851251D01*
X123914432Y-96854571D01*
X123914687Y-96858155D01*
X123921693Y-96876463D01*
X123971030Y-96971487D01*
X123975607Y-96982537D01*
X123978765Y-96986385D01*
X123979755Y-96988291D01*
X123981749Y-96990020D01*
X123988044Y-96997690D01*
X124038144Y-97045623D01*
X124045062Y-97053600D01*
X124049211Y-97056211D01*
X124050816Y-97057747D01*
X124053256Y-97058757D01*
X124061653Y-97064043D01*
X124144670Y-97103981D01*
X124146055Y-97105366D01*
X124156804Y-97109818D01*
X124175199Y-97118668D01*
X124178782Y-97118922D01*
X124182103Y-97120298D01*
X124201612Y-97122219D01*
X124329768Y-97120702D01*
X124331962Y-97121434D01*
X124344744Y-97120525D01*
X124363978Y-97120298D01*
X124367298Y-97118922D01*
X124370882Y-97118668D01*
X124389190Y-97111662D01*
X124484218Y-97062322D01*
X124495265Y-97057747D01*
X124499111Y-97054589D01*
X124501018Y-97053600D01*
X124502748Y-97051605D01*
X124510418Y-97045310D01*
X124558351Y-96995207D01*
X124566326Y-96988292D01*
X124568937Y-96984142D01*
X124570474Y-96982537D01*
X124571485Y-96980095D01*
X124576769Y-96971701D01*
X124616707Y-96888683D01*
X124618092Y-96887299D01*
X124622544Y-96876549D01*
X124631394Y-96858155D01*
X124631648Y-96854571D01*
X124633024Y-96851251D01*
X124634945Y-96831742D01*
X124633242Y-96561286D01*
X124634160Y-96558535D01*
X124633134Y-96544108D01*
X124633024Y-96526519D01*
X124631648Y-96523198D01*
X124631394Y-96519615D01*
X124624388Y-96501306D01*
X124598159Y-96450790D01*
X124815898Y-96450790D01*
X124817525Y-96588363D01*
X124816016Y-96598508D01*
X124817787Y-96610486D01*
X124817819Y-96613156D01*
X124818383Y-96614519D01*
X124818884Y-96617901D01*
X124866388Y-96800980D01*
X124867068Y-96810536D01*
X124872659Y-96825148D01*
X124873098Y-96826837D01*
X124873528Y-96827417D01*
X124874074Y-96828844D01*
X124923410Y-96923866D01*
X124927988Y-96934918D01*
X124931146Y-96938766D01*
X124932136Y-96940672D01*
X124934130Y-96942401D01*
X124940425Y-96950071D01*
X125026370Y-97033902D01*
X125027375Y-97035912D01*
X125036899Y-97044172D01*
X125050816Y-97057747D01*
X125054135Y-97059122D01*
X125056851Y-97061477D01*
X125074751Y-97069468D01*
X125217835Y-97115374D01*
X125229722Y-97120298D01*
X125234714Y-97120789D01*
X125236723Y-97121434D01*
X125239357Y-97121246D01*
X125249231Y-97122219D01*
X125506835Y-97120298D01*
X125542883Y-97105366D01*
X125570473Y-97077776D01*
X125585405Y-97041728D01*
X125587326Y-97022219D01*
X125585405Y-96002710D01*
X125570473Y-95966662D01*
X125542883Y-95939072D01*
X125506835Y-95924140D01*
X125487326Y-95922219D01*
X125250524Y-95923984D01*
X125236723Y-95923004D01*
X125231795Y-95924124D01*
X125229722Y-95924140D01*
X125227280Y-95925151D01*
X125217608Y-95927351D01*
X125089234Y-95971759D01*
X125086865Y-95971759D01*
X125074868Y-95976728D01*
X125056851Y-95982961D01*
X125054135Y-95985316D01*
X125050817Y-95986691D01*
X125035663Y-95999127D01*
X124941646Y-96095516D01*
X124932136Y-96103765D01*
X124929469Y-96108001D01*
X124927989Y-96109519D01*
X124926978Y-96111958D01*
X124921693Y-96120355D01*
X124878264Y-96210626D01*
X124873098Y-96217600D01*
X124867870Y-96232232D01*
X124867068Y-96233901D01*
X124867016Y-96234623D01*
X124866503Y-96236061D01*
X124821923Y-96421371D01*
X124817819Y-96431281D01*
X124816626Y-96443390D01*
X124816016Y-96445929D01*
X124816233Y-96447387D01*
X124815898Y-96450790D01*
X124598159Y-96450790D01*
X124575045Y-96406272D01*
X124570473Y-96395232D01*
X124567317Y-96391386D01*
X124566326Y-96389478D01*
X124564328Y-96387745D01*
X124558036Y-96380079D01*
X124507935Y-96332147D01*
X124501018Y-96324171D01*
X124496868Y-96321558D01*
X124495264Y-96320024D01*
X124492824Y-96319013D01*
X124484428Y-96313728D01*
X124401410Y-96273789D01*
X124400026Y-96272405D01*
X124389276Y-96267952D01*
X124370882Y-96259103D01*
X124367298Y-96258848D01*
X124363978Y-96257473D01*
X124344469Y-96255552D01*
X124216312Y-96257068D01*
X124214119Y-96256337D01*
X124201336Y-96257245D01*
X124182103Y-96257473D01*
X124178782Y-96258848D01*
X124175199Y-96259103D01*
X124156890Y-96266109D01*
X124061856Y-96315451D01*
X124050816Y-96320024D01*
X124046970Y-96323179D01*
X124045062Y-96324171D01*
X124043329Y-96326168D01*
X124035663Y-96332461D01*
X123987731Y-96382561D01*
X123979755Y-96389479D01*
X123977142Y-96393628D01*
X123975608Y-96395233D01*
X123974597Y-96397672D01*
X123969312Y-96406069D01*
X123929373Y-96489086D01*
X123927989Y-96490471D01*
X123923536Y-96501220D01*
X123914687Y-96519615D01*
X123914432Y-96523198D01*
X123913057Y-96526519D01*
X123911136Y-96546028D01*
X123681385Y-96546028D01*
X123680643Y-96336043D01*
X123665711Y-96299995D01*
X123638121Y-96272405D01*
X123602073Y-96257473D01*
X123563055Y-96257473D01*
X123527007Y-96272405D01*
X123499417Y-96299995D01*
X123484485Y-96336043D01*
X123482564Y-96355552D01*
X123484322Y-96852929D01*
X123461692Y-96899970D01*
X123418354Y-96922471D01*
X123322508Y-96923605D01*
X123263013Y-96894983D01*
X123253611Y-96885987D01*
X123252072Y-96336043D01*
X123237140Y-96299995D01*
X123209550Y-96272405D01*
X123173502Y-96257473D01*
X123134484Y-96257473D01*
X123098436Y-96272405D01*
X123070846Y-96299995D01*
X123055914Y-96336043D01*
X123053993Y-96355552D01*
X122918738Y-96355552D01*
X122918738Y-96336043D01*
X122903806Y-96299995D01*
X122876216Y-96272405D01*
X122840168Y-96257473D01*
X122820659Y-96255552D01*
X122776435Y-96255764D01*
X122775881Y-96002710D01*
X122760949Y-95966662D01*
X122733359Y-95939072D01*
X122697311Y-95924140D01*
X122658293Y-95924140D01*
X122622245Y-95939072D01*
X122594655Y-95966662D01*
X122579723Y-96002710D01*
X122577802Y-96022219D01*
X122578315Y-96256714D01*
X122420198Y-96257473D01*
X122384150Y-96272405D01*
X122356560Y-96299995D01*
X122341628Y-96336043D01*
X122230517Y-96336043D01*
X122230517Y-95811108D01*
X125698437Y-95811108D01*
X125698437Y-97233330D01*
G37*
G36*
X123212840Y-107663707D02*
G01*
X123178240Y-107771552D01*
X123112752Y-107838691D01*
X123044145Y-107874312D01*
X122876580Y-107917791D01*
X122757772Y-107919197D01*
X122590500Y-107878957D01*
X122515830Y-107843035D01*
X122446824Y-107775728D01*
X122411130Y-107672544D01*
X122410187Y-107546105D01*
X123211952Y-107544594D01*
X123212840Y-107663707D01*
G37*
G36*
X123522330Y-108228831D02*
G01*
X122100108Y-108228831D01*
X122100108Y-107446292D01*
X122211219Y-107446292D01*
X122212984Y-107683092D01*
X122212004Y-107696894D01*
X122213124Y-107701821D01*
X122213140Y-107703896D01*
X122214151Y-107706338D01*
X122216351Y-107716010D01*
X122260759Y-107844384D01*
X122260759Y-107846753D01*
X122265728Y-107858749D01*
X122271961Y-107876767D01*
X122274316Y-107879482D01*
X122275691Y-107882801D01*
X122288127Y-107897955D01*
X122384511Y-107991966D01*
X122392764Y-108001482D01*
X122397002Y-108004149D01*
X122398519Y-108005629D01*
X122400956Y-108006638D01*
X122409355Y-108011925D01*
X122499626Y-108055353D01*
X122506600Y-108060520D01*
X122521234Y-108065748D01*
X122522901Y-108066550D01*
X122523621Y-108066601D01*
X122525060Y-108067115D01*
X122710372Y-108111694D01*
X122720281Y-108115799D01*
X122732390Y-108116991D01*
X122734929Y-108117602D01*
X122736387Y-108117384D01*
X122739790Y-108117720D01*
X122877363Y-108116092D01*
X122887508Y-108117602D01*
X122899486Y-108115830D01*
X122902156Y-108115799D01*
X122903519Y-108115234D01*
X122906901Y-108114734D01*
X123089980Y-108067229D01*
X123099536Y-108066550D01*
X123114148Y-108060958D01*
X123115837Y-108060520D01*
X123116417Y-108060089D01*
X123117844Y-108059544D01*
X123212866Y-108010207D01*
X123223918Y-108005630D01*
X123227766Y-108002471D01*
X123229672Y-108001482D01*
X123231401Y-107999487D01*
X123239071Y-107993193D01*
X123322902Y-107907247D01*
X123324912Y-107906243D01*
X123333172Y-107896718D01*
X123346747Y-107882802D01*
X123348122Y-107879482D01*
X123350477Y-107876767D01*
X123358468Y-107858867D01*
X123404374Y-107715782D01*
X123409298Y-107703896D01*
X123409789Y-107698903D01*
X123410434Y-107696895D01*
X123410246Y-107694260D01*
X123411219Y-107684387D01*
X123409298Y-107426783D01*
X123394366Y-107390735D01*
X123366776Y-107363145D01*
X123330728Y-107348213D01*
X123311219Y-107346292D01*
X122291710Y-107348213D01*
X122255662Y-107363145D01*
X122228072Y-107390735D01*
X122213140Y-107426783D01*
X122211219Y-107446292D01*
X122100108Y-107446292D01*
X122100108Y-106405658D01*
X122211463Y-106405658D01*
X122213140Y-106411806D01*
X122213140Y-106418182D01*
X122218231Y-106430472D01*
X122221730Y-106443301D01*
X122225632Y-106448339D01*
X122228072Y-106454230D01*
X122237477Y-106463635D01*
X122245620Y-106474150D01*
X122253795Y-106479953D01*
X122255662Y-106481820D01*
X122257494Y-106482578D01*
X122261605Y-106485497D01*
X122938465Y-106870803D01*
X122291710Y-106872022D01*
X122255662Y-106886954D01*
X122228072Y-106914544D01*
X122213140Y-106950592D01*
X122213140Y-106989610D01*
X122228072Y-107025658D01*
X122255662Y-107053248D01*
X122291710Y-107068180D01*
X122311219Y-107070101D01*
X123305386Y-107068227D01*
X123318204Y-107069857D01*
X123324308Y-107068192D01*
X123330728Y-107068180D01*
X123343014Y-107063090D01*
X123355847Y-107059591D01*
X123360888Y-107055686D01*
X123366776Y-107053248D01*
X123376179Y-107043844D01*
X123386696Y-107035700D01*
X123389858Y-107030165D01*
X123394366Y-107025658D01*
X123399454Y-107013372D01*
X123406055Y-107001823D01*
X123406858Y-106995498D01*
X123409298Y-106989610D01*
X123409298Y-106976310D01*
X123410975Y-106963117D01*
X123409298Y-106956967D01*
X123409298Y-106950592D01*
X123404208Y-106938305D01*
X123400709Y-106925473D01*
X123396804Y-106920431D01*
X123394366Y-106914544D01*
X123384962Y-106905140D01*
X123376818Y-106894624D01*
X123368642Y-106888820D01*
X123366776Y-106886954D01*
X123364943Y-106886195D01*
X123360833Y-106883277D01*
X122683972Y-106497970D01*
X123330728Y-106496752D01*
X123366776Y-106481820D01*
X123394366Y-106454230D01*
X123409298Y-106418182D01*
X123409298Y-106379164D01*
X123394366Y-106343116D01*
X123366776Y-106315526D01*
X123330728Y-106300594D01*
X123311219Y-106298673D01*
X122317051Y-106300546D01*
X122304234Y-106298917D01*
X122298129Y-106300581D01*
X122291710Y-106300594D01*
X122279419Y-106305685D01*
X122266591Y-106309184D01*
X122261552Y-106313086D01*
X122255662Y-106315526D01*
X122246256Y-106324931D01*
X122235742Y-106333074D01*
X122232579Y-106338608D01*
X122228072Y-106343116D01*
X122222983Y-106355401D01*
X122216383Y-106366951D01*
X122215579Y-106373275D01*
X122213140Y-106379164D01*
X122213140Y-106392464D01*
X122211463Y-106405658D01*
X122100108Y-106405658D01*
X122100108Y-105684387D01*
X122211219Y-105684387D01*
X122212735Y-105812543D01*
X122212004Y-105814737D01*
X122212912Y-105827519D01*
X122213140Y-105846753D01*
X122214515Y-105850073D01*
X122214770Y-105853657D01*
X122221776Y-105871965D01*
X122279838Y-105983793D01*
X122309315Y-106009358D01*
X122346331Y-106021696D01*
X122385251Y-106018931D01*
X122420149Y-106001482D01*
X122445714Y-105972005D01*
X122458053Y-105934989D01*
X122455287Y-105896069D01*
X122448281Y-105877760D01*
X122410966Y-105805891D01*
X122409767Y-105704539D01*
X122444198Y-105597222D01*
X122509685Y-105530081D01*
X122578289Y-105494461D01*
X122745856Y-105450982D01*
X122864663Y-105449576D01*
X123031936Y-105489816D01*
X123106607Y-105525739D01*
X123175613Y-105593047D01*
X123211422Y-105696563D01*
X123212485Y-105760050D01*
X123178098Y-105867230D01*
X123175140Y-105870323D01*
X122981743Y-105871376D01*
X122980726Y-105760116D01*
X122965794Y-105724068D01*
X122938204Y-105696478D01*
X122902156Y-105681546D01*
X122863138Y-105681546D01*
X122827090Y-105696478D01*
X122799500Y-105724068D01*
X122784568Y-105760116D01*
X122782647Y-105779625D01*
X122784568Y-105989609D01*
X122784568Y-105989610D01*
X122799500Y-106025658D01*
X122827090Y-106053248D01*
X122863138Y-106068180D01*
X122882647Y-106070101D01*
X123235489Y-106068180D01*
X123246046Y-106063806D01*
X123271537Y-106053249D01*
X123286690Y-106040812D01*
X123323776Y-106002048D01*
X123324912Y-106001481D01*
X123330654Y-105994859D01*
X123346747Y-105978040D01*
X123348122Y-105974720D01*
X123350477Y-105972005D01*
X123358468Y-105954105D01*
X123404374Y-105811020D01*
X123409298Y-105799134D01*
X123409789Y-105794141D01*
X123410434Y-105792133D01*
X123410246Y-105789498D01*
X123411219Y-105779625D01*
X123409609Y-105683481D01*
X123410434Y-105671879D01*
X123409334Y-105667043D01*
X123409298Y-105664878D01*
X123408286Y-105662436D01*
X123406087Y-105652764D01*
X123361679Y-105524389D01*
X123361679Y-105522021D01*
X123356708Y-105510022D01*
X123350477Y-105492007D01*
X123348122Y-105489291D01*
X123346747Y-105485972D01*
X123334311Y-105470819D01*
X123237915Y-105376796D01*
X123229672Y-105367292D01*
X123225438Y-105364627D01*
X123223918Y-105363144D01*
X123221474Y-105362131D01*
X123213082Y-105356849D01*
X123122810Y-105313420D01*
X123115837Y-105308254D01*
X123101204Y-105303026D01*
X123099536Y-105302224D01*
X123098813Y-105302172D01*
X123097376Y-105301659D01*
X122912065Y-105257079D01*
X122902156Y-105252975D01*
X122890046Y-105251782D01*
X122887508Y-105251172D01*
X122886049Y-105251389D01*
X122882647Y-105251054D01*
X122745073Y-105252681D01*
X122734929Y-105251172D01*
X122722950Y-105252943D01*
X122720281Y-105252975D01*
X122718917Y-105253539D01*
X122715536Y-105254040D01*
X122532456Y-105301544D01*
X122522901Y-105302224D01*
X122508285Y-105307816D01*
X122506600Y-105308254D01*
X122506020Y-105308683D01*
X122504592Y-105309230D01*
X122409558Y-105358572D01*
X122398519Y-105363145D01*
X122394674Y-105366300D01*
X122392764Y-105367292D01*
X122391031Y-105369289D01*
X122383365Y-105375581D01*
X122299536Y-105461525D01*
X122297526Y-105462531D01*
X122289260Y-105472060D01*
X122275691Y-105485973D01*
X122274316Y-105489291D01*
X122271961Y-105492007D01*
X122263970Y-105509908D01*
X122218065Y-105652987D01*
X122213140Y-105664878D01*
X122212648Y-105669871D01*
X122212004Y-105671880D01*
X122212191Y-105674513D01*
X122211219Y-105684387D01*
X122100108Y-105684387D01*
X122100108Y-105139943D01*
X123522330Y-105139943D01*
X123522330Y-108228831D01*
G37*
G36*
X123924833Y-70045952D02*
G01*
X123805720Y-70046840D01*
X123697875Y-70012240D01*
X123630736Y-69946752D01*
X123595115Y-69878145D01*
X123551636Y-69710580D01*
X123550230Y-69591773D01*
X123590470Y-69424500D01*
X123626392Y-69349830D01*
X123693699Y-69280824D01*
X123796883Y-69245130D01*
X123923322Y-69244187D01*
X123924833Y-70045952D01*
G37*
G36*
X126400125Y-67959559D02*
G01*
X126144686Y-67960785D01*
X126084537Y-67931848D01*
X126058764Y-67907190D01*
X126027645Y-67847255D01*
X126026511Y-67751409D01*
X126055132Y-67691916D01*
X126079794Y-67666139D01*
X126139433Y-67635173D01*
X126399511Y-67633926D01*
X126400125Y-67959559D01*
G37*
G36*
X126710437Y-70356330D02*
G01*
X121907264Y-70356330D01*
X121907264Y-69621409D01*
X122018375Y-69621409D01*
X122020296Y-70164728D01*
X122035228Y-70200776D01*
X122062818Y-70228366D01*
X122098866Y-70243298D01*
X122137884Y-70243298D01*
X122173932Y-70228366D01*
X122201522Y-70200776D01*
X122216454Y-70164728D01*
X122218375Y-70145219D01*
X122216616Y-69647841D01*
X122239247Y-69600799D01*
X122282583Y-69578299D01*
X122378430Y-69577165D01*
X122437923Y-69605786D01*
X122447327Y-69614783D01*
X122448867Y-70164728D01*
X122463799Y-70200776D01*
X122491389Y-70228366D01*
X122527437Y-70243298D01*
X122566455Y-70243298D01*
X122602503Y-70228366D01*
X122630093Y-70200776D01*
X122645025Y-70164728D01*
X122646946Y-70145219D01*
X122645080Y-69478552D01*
X122923136Y-69478552D01*
X122925057Y-70164728D01*
X122939989Y-70200776D01*
X122967579Y-70228366D01*
X123003627Y-70243298D01*
X123042645Y-70243298D01*
X123078693Y-70228366D01*
X123106283Y-70200776D01*
X123121215Y-70164728D01*
X123123136Y-70145219D01*
X123121536Y-69573790D01*
X123351708Y-69573790D01*
X123353335Y-69711363D01*
X123351826Y-69721508D01*
X123353597Y-69733486D01*
X123353629Y-69736156D01*
X123354193Y-69737519D01*
X123354694Y-69740901D01*
X123402198Y-69923980D01*
X123402878Y-69933536D01*
X123408469Y-69948148D01*
X123408908Y-69949837D01*
X123409338Y-69950417D01*
X123409884Y-69951844D01*
X123459220Y-70046866D01*
X123463798Y-70057918D01*
X123466956Y-70061766D01*
X123467946Y-70063672D01*
X123469940Y-70065401D01*
X123476235Y-70073071D01*
X123562180Y-70156902D01*
X123563185Y-70158912D01*
X123572709Y-70167172D01*
X123586626Y-70180747D01*
X123589945Y-70182122D01*
X123592661Y-70184477D01*
X123610561Y-70192468D01*
X123753645Y-70238374D01*
X123765532Y-70243298D01*
X123770524Y-70243789D01*
X123772533Y-70244434D01*
X123775167Y-70244246D01*
X123785041Y-70245219D01*
X124042645Y-70243298D01*
X124078693Y-70228366D01*
X124106283Y-70200776D01*
X124121215Y-70164728D01*
X124123136Y-70145219D01*
X124122388Y-69748095D01*
X124400643Y-69748095D01*
X124401192Y-69764266D01*
X124400643Y-69780437D01*
X124401850Y-69783656D01*
X124401967Y-69787091D01*
X124408660Y-69801818D01*
X124414343Y-69816971D01*
X124416689Y-69819482D01*
X124418112Y-69822612D01*
X124429934Y-69833658D01*
X124440981Y-69845481D01*
X124444110Y-69846903D01*
X124446622Y-69849250D01*
X124464215Y-69857899D01*
X125245060Y-70148664D01*
X125284056Y-70147340D01*
X125319577Y-70131195D01*
X125346215Y-70102685D01*
X125359915Y-70066151D01*
X125358591Y-70027155D01*
X125342446Y-69991634D01*
X125313936Y-69964996D01*
X125296344Y-69956347D01*
X124781456Y-69764617D01*
X124834047Y-69744757D01*
X125639343Y-69744757D01*
X125639343Y-69783775D01*
X125654275Y-69819823D01*
X125681865Y-69847413D01*
X125717913Y-69862345D01*
X125737422Y-69864266D01*
X126518835Y-69862345D01*
X126554883Y-69847413D01*
X126582473Y-69819823D01*
X126597405Y-69783775D01*
X126597405Y-69744757D01*
X126582473Y-69708709D01*
X126554883Y-69681119D01*
X126518835Y-69666187D01*
X126499326Y-69664266D01*
X125717913Y-69666187D01*
X125681865Y-69681119D01*
X125654275Y-69708709D01*
X125639343Y-69744757D01*
X124834047Y-69744757D01*
X125313936Y-69563536D01*
X125342446Y-69536898D01*
X125358591Y-69501377D01*
X125359915Y-69462381D01*
X125346215Y-69425847D01*
X125319577Y-69397337D01*
X125284056Y-69381192D01*
X125245060Y-69379868D01*
X125226119Y-69384919D01*
X124479680Y-69666798D01*
X124476502Y-69666906D01*
X124462294Y-69673363D01*
X124446622Y-69679282D01*
X124444110Y-69681628D01*
X124440981Y-69683051D01*
X124429934Y-69694873D01*
X124418112Y-69705920D01*
X124416689Y-69709049D01*
X124414343Y-69711561D01*
X124408660Y-69726713D01*
X124401967Y-69741441D01*
X124401850Y-69744875D01*
X124400643Y-69748095D01*
X124122388Y-69748095D01*
X124121215Y-69125710D01*
X124106283Y-69089662D01*
X124078693Y-69062072D01*
X124042645Y-69047140D01*
X124023136Y-69045219D01*
X123786334Y-69046984D01*
X123772533Y-69046004D01*
X123767605Y-69047124D01*
X123765532Y-69047140D01*
X123763090Y-69048151D01*
X123753418Y-69050351D01*
X123625044Y-69094759D01*
X123622675Y-69094759D01*
X123610678Y-69099728D01*
X123592661Y-69105961D01*
X123589945Y-69108316D01*
X123586627Y-69109691D01*
X123571473Y-69122127D01*
X123477456Y-69218516D01*
X123467946Y-69226765D01*
X123465279Y-69231001D01*
X123463799Y-69232519D01*
X123462788Y-69234958D01*
X123457503Y-69243355D01*
X123414074Y-69333626D01*
X123408908Y-69340600D01*
X123403680Y-69355232D01*
X123402878Y-69356901D01*
X123402826Y-69357623D01*
X123402313Y-69359061D01*
X123357733Y-69544371D01*
X123353629Y-69554281D01*
X123352436Y-69566390D01*
X123351826Y-69568929D01*
X123352043Y-69570387D01*
X123351708Y-69573790D01*
X123121536Y-69573790D01*
X123121215Y-69459043D01*
X123106283Y-69422995D01*
X123078693Y-69395405D01*
X123042645Y-69380473D01*
X123003627Y-69380473D01*
X122967579Y-69395405D01*
X122939989Y-69422995D01*
X122925057Y-69459043D01*
X122923136Y-69478552D01*
X122645080Y-69478552D01*
X122645025Y-69459043D01*
X122630093Y-69422995D01*
X122602503Y-69395405D01*
X122566455Y-69380473D01*
X122527437Y-69380473D01*
X122491389Y-69395405D01*
X122480593Y-69406200D01*
X122461030Y-69396789D01*
X122459646Y-69395405D01*
X122448896Y-69390952D01*
X122430502Y-69382103D01*
X122426918Y-69381848D01*
X122423598Y-69380473D01*
X122404089Y-69378552D01*
X122275932Y-69380068D01*
X122273739Y-69379337D01*
X122260956Y-69380245D01*
X122241723Y-69380473D01*
X122238402Y-69381848D01*
X122234819Y-69382103D01*
X122216510Y-69389109D01*
X122125912Y-69436148D01*
X122116471Y-69439295D01*
X122111428Y-69443667D01*
X122104682Y-69447171D01*
X122096464Y-69456646D01*
X122086994Y-69464860D01*
X122080780Y-69474731D01*
X122079118Y-69476648D01*
X122078604Y-69478186D01*
X122076551Y-69481450D01*
X122036612Y-69564467D01*
X122035228Y-69565852D01*
X122030775Y-69576601D01*
X122021926Y-69594996D01*
X122021671Y-69598579D01*
X122020296Y-69601900D01*
X122018375Y-69621409D01*
X121907264Y-69621409D01*
X121907264Y-69173329D01*
X122877438Y-69173329D01*
X122877438Y-69212347D01*
X122892370Y-69248395D01*
X122904806Y-69263549D01*
X122967578Y-69323604D01*
X122978136Y-69327977D01*
X123003627Y-69338536D01*
X123042645Y-69338536D01*
X123078693Y-69323604D01*
X123093847Y-69311168D01*
X123153902Y-69248396D01*
X123168833Y-69212347D01*
X123168833Y-69173329D01*
X123165973Y-69166425D01*
X123153902Y-69137280D01*
X123141465Y-69122127D01*
X123078693Y-69062072D01*
X123042645Y-69047140D01*
X123003627Y-69047140D01*
X122978136Y-69057698D01*
X122967578Y-69062072D01*
X122952425Y-69074509D01*
X122892371Y-69137280D01*
X122892370Y-69137281D01*
X122877438Y-69173329D01*
X121907264Y-69173329D01*
X121907264Y-67725751D01*
X122589803Y-67725751D01*
X122591412Y-67821893D01*
X122590588Y-67833496D01*
X122591687Y-67838332D01*
X122591724Y-67840498D01*
X122592735Y-67842940D01*
X122594935Y-67852612D01*
X122639343Y-67980986D01*
X122639343Y-67983355D01*
X122644312Y-67995351D01*
X122650545Y-68013369D01*
X122652900Y-68016084D01*
X122654275Y-68019403D01*
X122666711Y-68034557D01*
X123070015Y-68435993D01*
X122670294Y-68437196D01*
X122634246Y-68452128D01*
X122606656Y-68479718D01*
X122591724Y-68515766D01*
X122591724Y-68554784D01*
X122606656Y-68590832D01*
X122634246Y-68618422D01*
X122670294Y-68633354D01*
X122689803Y-68635275D01*
X123328359Y-68633354D01*
X123364407Y-68618422D01*
X123391997Y-68590832D01*
X123406929Y-68554784D01*
X123406929Y-68515766D01*
X123391997Y-68479718D01*
X123379561Y-68464564D01*
X122825750Y-67913318D01*
X122789599Y-67808812D01*
X122788630Y-67750964D01*
X122817037Y-67691916D01*
X122841699Y-67666139D01*
X122901447Y-67635117D01*
X123092310Y-67633693D01*
X123152208Y-67662509D01*
X123205673Y-67713660D01*
X123241722Y-67728591D01*
X123280740Y-67728591D01*
X123316788Y-67713660D01*
X123344378Y-67686070D01*
X123359309Y-67650022D01*
X123359309Y-67611004D01*
X123344378Y-67574955D01*
X123331941Y-67559802D01*
X123306304Y-67535275D01*
X124351708Y-67535275D01*
X124353581Y-68529442D01*
X124351952Y-68542260D01*
X124353616Y-68548364D01*
X124353629Y-68554784D01*
X124358720Y-68567074D01*
X124362219Y-68579903D01*
X124366121Y-68584941D01*
X124368561Y-68590832D01*
X124377966Y-68600237D01*
X124386109Y-68610752D01*
X124391643Y-68613914D01*
X124396151Y-68618422D01*
X124408436Y-68623510D01*
X124419986Y-68630111D01*
X124426310Y-68630914D01*
X124432199Y-68633354D01*
X124445500Y-68633354D01*
X124458693Y-68635031D01*
X124464842Y-68633354D01*
X124471217Y-68633354D01*
X124483507Y-68628262D01*
X124496336Y-68624764D01*
X124501374Y-68620861D01*
X124507265Y-68618422D01*
X124516670Y-68609016D01*
X124527185Y-68600874D01*
X124532988Y-68592698D01*
X124534855Y-68590832D01*
X124535613Y-68588999D01*
X124538532Y-68584889D01*
X124923838Y-67908028D01*
X124925057Y-68554784D01*
X124939989Y-68590832D01*
X124967579Y-68618422D01*
X125003627Y-68633354D01*
X125042645Y-68633354D01*
X125078693Y-68618422D01*
X125106283Y-68590832D01*
X125121215Y-68554784D01*
X125123136Y-68535275D01*
X125121262Y-67541107D01*
X125122004Y-67535275D01*
X125399326Y-67535275D01*
X125401247Y-68554784D01*
X125416179Y-68590832D01*
X125443769Y-68618422D01*
X125479817Y-68633354D01*
X125518835Y-68633354D01*
X125554883Y-68618422D01*
X125582473Y-68590832D01*
X125597405Y-68554784D01*
X125599326Y-68535275D01*
X125597801Y-67725751D01*
X125827898Y-67725751D01*
X125829414Y-67853907D01*
X125828683Y-67856101D01*
X125829591Y-67868883D01*
X125829819Y-67888117D01*
X125831194Y-67891437D01*
X125831449Y-67895021D01*
X125838455Y-67913329D01*
X125887795Y-68008358D01*
X125892370Y-68019403D01*
X125895526Y-68023249D01*
X125896517Y-68025157D01*
X125898511Y-68026886D01*
X125904806Y-68034557D01*
X125954908Y-68082490D01*
X125961824Y-68090465D01*
X125965973Y-68093076D01*
X125967578Y-68094612D01*
X125970018Y-68095622D01*
X125978415Y-68100908D01*
X126061432Y-68140846D01*
X126062817Y-68142231D01*
X126073566Y-68146683D01*
X126091961Y-68155533D01*
X126095544Y-68155787D01*
X126098865Y-68157163D01*
X126118374Y-68159084D01*
X126400498Y-68157730D01*
X126401247Y-68554784D01*
X126416179Y-68590832D01*
X126443769Y-68618422D01*
X126479817Y-68633354D01*
X126518835Y-68633354D01*
X126554883Y-68618422D01*
X126582473Y-68590832D01*
X126597405Y-68554784D01*
X126599326Y-68535275D01*
X126597405Y-67515766D01*
X126582473Y-67479718D01*
X126554883Y-67452128D01*
X126518835Y-67437196D01*
X126499326Y-67435275D01*
X126133786Y-67437028D01*
X126130881Y-67436060D01*
X126116056Y-67437113D01*
X126098865Y-67437196D01*
X126095544Y-67438571D01*
X126091961Y-67438826D01*
X126073652Y-67445832D01*
X125978618Y-67495174D01*
X125967578Y-67499747D01*
X125963732Y-67502902D01*
X125961824Y-67503894D01*
X125960091Y-67505891D01*
X125952425Y-67512184D01*
X125904493Y-67562284D01*
X125896517Y-67569202D01*
X125893904Y-67573351D01*
X125892370Y-67574956D01*
X125891359Y-67577395D01*
X125886074Y-67585792D01*
X125846135Y-67668809D01*
X125844751Y-67670194D01*
X125840298Y-67680943D01*
X125831449Y-67699338D01*
X125831194Y-67702921D01*
X125829819Y-67706242D01*
X125827898Y-67725751D01*
X125597801Y-67725751D01*
X125597405Y-67515766D01*
X125582473Y-67479718D01*
X125554883Y-67452128D01*
X125518835Y-67437196D01*
X125479817Y-67437196D01*
X125443769Y-67452128D01*
X125416179Y-67479718D01*
X125401247Y-67515766D01*
X125399326Y-67535275D01*
X125122004Y-67535275D01*
X125122892Y-67528290D01*
X125121227Y-67522185D01*
X125121215Y-67515766D01*
X125116125Y-67503479D01*
X125112626Y-67490647D01*
X125108721Y-67485605D01*
X125106283Y-67479718D01*
X125096879Y-67470314D01*
X125088735Y-67459798D01*
X125083200Y-67456635D01*
X125078693Y-67452128D01*
X125066407Y-67447039D01*
X125054858Y-67440439D01*
X125048533Y-67439635D01*
X125042645Y-67437196D01*
X125029345Y-67437196D01*
X125016152Y-67435519D01*
X125010003Y-67437196D01*
X125003627Y-67437196D01*
X124991340Y-67442285D01*
X124978508Y-67445785D01*
X124973466Y-67449689D01*
X124967579Y-67452128D01*
X124958175Y-67461531D01*
X124947659Y-67469676D01*
X124941855Y-67477851D01*
X124939989Y-67479718D01*
X124939230Y-67481550D01*
X124936312Y-67485661D01*
X124551005Y-68162521D01*
X124549787Y-67515766D01*
X124534855Y-67479718D01*
X124507265Y-67452128D01*
X124471217Y-67437196D01*
X124432199Y-67437196D01*
X124396151Y-67452128D01*
X124368561Y-67479718D01*
X124353629Y-67515766D01*
X124351708Y-67535275D01*
X123306304Y-67535275D01*
X123281840Y-67511870D01*
X123274923Y-67503894D01*
X123270773Y-67501281D01*
X123269169Y-67499747D01*
X123266729Y-67498736D01*
X123258333Y-67493451D01*
X123175315Y-67453512D01*
X123173931Y-67452128D01*
X123163181Y-67447675D01*
X123144787Y-67438826D01*
X123141203Y-67438571D01*
X123137883Y-67437196D01*
X123118374Y-67435275D01*
X122895418Y-67436937D01*
X122892786Y-67436060D01*
X122878680Y-67437062D01*
X122860770Y-67437196D01*
X122857449Y-67438571D01*
X122853866Y-67438826D01*
X122835557Y-67445832D01*
X122740523Y-67495174D01*
X122729483Y-67499747D01*
X122725637Y-67502902D01*
X122723729Y-67503894D01*
X122721996Y-67505891D01*
X122714330Y-67512184D01*
X122666398Y-67562284D01*
X122658422Y-67569202D01*
X122655809Y-67573351D01*
X122654275Y-67574956D01*
X122653264Y-67577395D01*
X122647979Y-67585792D01*
X122608040Y-67668809D01*
X122606656Y-67670194D01*
X122602203Y-67680943D01*
X122593354Y-67699338D01*
X122593099Y-67702921D01*
X122591724Y-67706242D01*
X122589803Y-67725751D01*
X121907264Y-67725751D01*
X121907264Y-67324164D01*
X126710437Y-67324164D01*
X126710437Y-70356330D01*
G37*
G36*
X138699270Y-106631330D02*
G01*
X137708327Y-106631330D01*
X137708327Y-106400710D01*
X137819438Y-106400710D01*
X137819438Y-106439728D01*
X137834370Y-106475776D01*
X137861960Y-106503366D01*
X137898008Y-106518298D01*
X137917517Y-106520219D01*
X138508454Y-106518298D01*
X138544502Y-106503366D01*
X138572092Y-106475776D01*
X138587024Y-106439728D01*
X138587024Y-106400710D01*
X138572092Y-106364662D01*
X138544502Y-106337072D01*
X138508454Y-106322140D01*
X138488945Y-106320219D01*
X138303043Y-106320823D01*
X138301885Y-105706089D01*
X138324142Y-105727798D01*
X138332395Y-105737314D01*
X138336633Y-105739981D01*
X138338150Y-105741461D01*
X138340587Y-105742470D01*
X138348986Y-105747757D01*
X138462532Y-105802382D01*
X138501452Y-105805148D01*
X138538468Y-105792809D01*
X138567945Y-105767244D01*
X138585394Y-105732346D01*
X138588159Y-105693426D01*
X138575821Y-105656410D01*
X138550256Y-105626933D01*
X138533666Y-105616490D01*
X138455461Y-105578867D01*
X138380232Y-105505490D01*
X138289617Y-105372482D01*
X138286378Y-105364662D01*
X138279825Y-105358109D01*
X138274016Y-105349582D01*
X138265787Y-105344071D01*
X138258788Y-105337072D01*
X138249736Y-105333322D01*
X138241596Y-105327871D01*
X138231888Y-105325929D01*
X138222740Y-105322140D01*
X138212941Y-105322140D01*
X138203336Y-105320219D01*
X138193625Y-105322140D01*
X138183722Y-105322140D01*
X138174669Y-105325889D01*
X138165059Y-105327791D01*
X138156820Y-105333283D01*
X138147674Y-105337072D01*
X138140747Y-105343998D01*
X138132594Y-105349434D01*
X138127083Y-105357662D01*
X138120084Y-105364662D01*
X138116334Y-105373713D01*
X138110883Y-105381854D01*
X138108941Y-105391561D01*
X138105152Y-105400710D01*
X138103251Y-105420012D01*
X138103231Y-105420114D01*
X138103237Y-105420148D01*
X138103231Y-105420219D01*
X138104929Y-106321467D01*
X137898008Y-106322140D01*
X137861960Y-106337072D01*
X137834370Y-106364662D01*
X137819438Y-106400710D01*
X137708327Y-106400710D01*
X137708327Y-105209108D01*
X138699270Y-105209108D01*
X138699270Y-106631330D01*
G37*
D11*
X134383285Y-85532819D02*
X134954713Y-85532819D01*
X134668999Y-85532819D02*
X134668999Y-84532819D01*
X134668999Y-84532819D02*
X134764237Y-84675676D01*
X134764237Y-84675676D02*
X134859475Y-84770914D01*
X134859475Y-84770914D02*
X134954713Y-84818533D01*
X134383285Y-91532819D02*
X134954713Y-91532819D01*
X134668999Y-91532819D02*
X134668999Y-90532819D01*
X134668999Y-90532819D02*
X134764237Y-90675676D01*
X134764237Y-90675676D02*
X134859475Y-90770914D01*
X134859475Y-90770914D02*
X134954713Y-90818533D01*
X134383285Y-73532819D02*
X134954713Y-73532819D01*
X134668999Y-73532819D02*
X134668999Y-72532819D01*
X134668999Y-72532819D02*
X134764237Y-72675676D01*
X134764237Y-72675676D02*
X134859475Y-72770914D01*
X134859475Y-72770914D02*
X134954713Y-72818533D01*
X134383285Y-79532819D02*
X134954713Y-79532819D01*
X134668999Y-79532819D02*
X134668999Y-78532819D01*
X134668999Y-78532819D02*
X134764237Y-78675676D01*
X134764237Y-78675676D02*
X134859475Y-78770914D01*
X134859475Y-78770914D02*
X134954713Y-78818533D01*
X134383285Y-97532819D02*
X134954713Y-97532819D01*
X134668999Y-97532819D02*
X134668999Y-96532819D01*
X134668999Y-96532819D02*
X134764237Y-96675676D01*
X134764237Y-96675676D02*
X134859475Y-96770914D01*
X134859475Y-96770914D02*
X134954713Y-96818533D01*
X134383285Y-67532819D02*
X134954713Y-67532819D01*
X134668999Y-67532819D02*
X134668999Y-66532819D01*
X134668999Y-66532819D02*
X134764237Y-66675676D01*
X134764237Y-66675676D02*
X134859475Y-66770914D01*
X134859475Y-66770914D02*
X134954713Y-66818533D01*
D12*
%TO.C,J1*%
X121606000Y-102556000D02*
X121606000Y-105216000D01*
X121606000Y-102556000D02*
X136906000Y-102556000D01*
X121606000Y-105216000D02*
X136906000Y-105216000D01*
X136906000Y-102556000D02*
X136906000Y-105216000D01*
X139506000Y-103886000D02*
X139506000Y-105216000D01*
X139506000Y-105216000D02*
X138176000Y-105216000D01*
%TO.C,J3*%
X137729000Y-100203000D02*
G75*
G02*
X135829000Y-100203000I-950000J0D01*
G01*
X135829000Y-100203000D02*
G75*
G02*
X137729000Y-100203000I950000J0D01*
G01*
D13*
%TO.C,J4*%
X123244000Y-114090000D02*
X123244000Y-113200000D01*
X124029000Y-113200000D02*
X123244000Y-113200000D01*
X124029000Y-113200000D02*
X124029000Y-112690000D01*
X126504000Y-108690000D02*
X127064000Y-108690000D01*
X134344000Y-108690000D02*
X134904000Y-108690000D01*
X137379000Y-113200000D02*
X137379000Y-112690000D01*
X138164000Y-113200000D02*
X137379000Y-113200000D01*
X138164000Y-113200000D02*
X138164000Y-114090000D01*
X138164000Y-114090000D02*
X123244000Y-114090000D01*
D10*
X134804000Y-107520000D02*
G75*
G02*
X134604000Y-107520000I-100000J0D01*
G01*
X134604000Y-107520000D02*
G75*
G02*
X134804000Y-107520000I100000J0D01*
G01*
D12*
%TO.C,D10*%
X126869000Y-83928000D02*
X134169000Y-83928000D01*
X126869000Y-88278000D02*
X126869000Y-89428000D01*
X126869000Y-89428000D02*
X134169000Y-89428000D01*
%TO.C,D11*%
X126869000Y-89928000D02*
X134169000Y-89928000D01*
X126869000Y-94278000D02*
X126869000Y-95428000D01*
X126869000Y-95428000D02*
X134169000Y-95428000D01*
%TO.C,D8*%
X126869000Y-71928000D02*
X134169000Y-71928000D01*
X126869000Y-76278000D02*
X126869000Y-77428000D01*
X126869000Y-77428000D02*
X134169000Y-77428000D01*
%TO.C,D9*%
X126869000Y-77928000D02*
X134169000Y-77928000D01*
X126869000Y-82278000D02*
X126869000Y-83428000D01*
X126869000Y-83428000D02*
X134169000Y-83428000D01*
%TO.C,D12*%
X126869000Y-95928000D02*
X134169000Y-95928000D01*
X126869000Y-100278000D02*
X126869000Y-101428000D01*
X126869000Y-101428000D02*
X134169000Y-101428000D01*
%TO.C,D7*%
X126869000Y-65928000D02*
X134169000Y-65928000D01*
X126869000Y-70278000D02*
X126869000Y-71428000D01*
X126869000Y-71428000D02*
X134169000Y-71428000D01*
%TD*%
M02*
