%TF.GenerationSoftware,KiCad,Pcbnew,8.0.2*%
%TF.CreationDate,2025-03-09T15:07:14+01:00*%
%TF.ProjectId,ledPcb,6c656450-6362-42e6-9b69-6361645f7063,rev?*%
%TF.SameCoordinates,Original*%
%TF.FileFunction,Soldermask,Top*%
%TF.FilePolarity,Negative*%
%FSLAX46Y46*%
G04 Gerber Fmt 4.6, Leading zero omitted, Abs format (unit mm)*
G04 Created by KiCad (PCBNEW 8.0.2) date 2025-03-09 15:07:14*
%MOMM*%
%LPD*%
G01*
G04 APERTURE LIST*
G04 Aperture macros list*
%AMRoundRect*
0 Rectangle with rounded corners*
0 $1 Rounding radius*
0 $2 $3 $4 $5 $6 $7 $8 $9 X,Y pos of 4 corners*
0 Add a 4 corners polygon primitive as box body*
4,1,4,$2,$3,$4,$5,$6,$7,$8,$9,$2,$3,0*
0 Add four circle primitives for the rounded corners*
1,1,$1+$1,$2,$3*
1,1,$1+$1,$4,$5*
1,1,$1+$1,$6,$7*
1,1,$1+$1,$8,$9*
0 Add four rect primitives between the rounded corners*
20,1,$1+$1,$2,$3,$4,$5,0*
20,1,$1+$1,$4,$5,$6,$7,0*
20,1,$1+$1,$6,$7,$8,$9,0*
20,1,$1+$1,$8,$9,$2,$3,0*%
%AMFreePoly0*
4,1,6,1.000000,0.000000,0.500000,-0.750000,-0.500000,-0.750000,-0.500000,0.750000,0.500000,0.750000,1.000000,0.000000,1.000000,0.000000,$1*%
G04 Aperture macros list end*
%ADD10RoundRect,0.250000X-0.350000X-0.450000X0.350000X-0.450000X0.350000X0.450000X-0.350000X0.450000X0*%
%ADD11R,1.500000X1.500000*%
%ADD12FreePoly0,270.000000*%
%ADD13FreePoly0,90.000000*%
%ADD14C,2.200000*%
%ADD15RoundRect,0.243750X-0.243750X-0.456250X0.243750X-0.456250X0.243750X0.456250X-0.243750X0.456250X0*%
%ADD16RoundRect,0.102000X-0.305000X-1.000000X0.305000X-1.000000X0.305000X1.000000X-0.305000X1.000000X0*%
%ADD17RoundRect,0.102000X-1.340000X-1.800000X1.340000X-1.800000X1.340000X1.800000X-1.340000X1.800000X0*%
%ADD18R,1.700000X1.700000*%
%ADD19O,1.700000X1.700000*%
G04 APERTURE END LIST*
D10*
%TO.C,R2*%
X129556000Y-100498000D03*
X131556000Y-100498000D03*
%TD*%
D11*
%TO.C,JP4*%
X122809000Y-92170000D03*
X122809000Y-94570000D03*
D12*
X122809000Y-91370000D03*
D13*
X122809000Y-95370000D03*
%TD*%
D10*
%TO.C,R1*%
X129556000Y-94498000D03*
X131556000Y-94498000D03*
%TD*%
D14*
%TO.C,H2*%
X137033000Y-68580000D03*
%TD*%
D10*
%TO.C,R3*%
X129556000Y-70498000D03*
X131556000Y-70498000D03*
%TD*%
%TO.C,R6*%
X129556000Y-88498000D03*
X131556000Y-88498000D03*
%TD*%
%TO.C,R5*%
X129556000Y-82498000D03*
X131556000Y-82498000D03*
%TD*%
D15*
%TO.C,D3*%
X129618500Y-80298000D03*
X131493500Y-80298000D03*
%TD*%
%TO.C,D5*%
X129618500Y-92298000D03*
X131493500Y-92298000D03*
%TD*%
D16*
%TO.C,J2*%
X127731000Y-107696000D03*
X128731000Y-107696000D03*
X129731000Y-107696000D03*
X130731000Y-107696000D03*
X131731000Y-107696000D03*
X132731000Y-107696000D03*
X133731000Y-107696000D03*
D17*
X124741000Y-110496000D03*
X136721000Y-110496000D03*
%TD*%
D15*
%TO.C,D6*%
X129618500Y-98298000D03*
X131493500Y-98298000D03*
%TD*%
D11*
%TO.C,JP3*%
X135771134Y-92120740D03*
X135771134Y-94520740D03*
D12*
X135771134Y-91320740D03*
D13*
X135771134Y-95320740D03*
%TD*%
D11*
%TO.C,JP1*%
X125603000Y-92145000D03*
X125603000Y-94545000D03*
D12*
X125603000Y-91345000D03*
D13*
X125603000Y-95345000D03*
%TD*%
D14*
%TO.C,H1*%
X123952000Y-99314000D03*
%TD*%
D15*
%TO.C,D2*%
X129618500Y-74298000D03*
X131493500Y-74298000D03*
%TD*%
%TO.C,D1*%
X129618500Y-68298000D03*
X131493500Y-68298000D03*
%TD*%
D10*
%TO.C,R4*%
X129556000Y-76498000D03*
X131556000Y-76498000D03*
%TD*%
D15*
%TO.C,D4*%
X129618500Y-86298000D03*
X131493500Y-86298000D03*
%TD*%
D11*
%TO.C,JP2*%
X138684000Y-92113000D03*
X138684000Y-94513000D03*
D12*
X138684000Y-91313000D03*
D13*
X138684000Y-95313000D03*
%TD*%
D18*
%TO.C,J1*%
X138176000Y-103886000D03*
D19*
X135636000Y-103886000D03*
X133096000Y-103886000D03*
X130556000Y-103886000D03*
X128016000Y-103886000D03*
X125476000Y-103886000D03*
X122936000Y-103886000D03*
%TD*%
M02*
