M48
; DRILL file {KiCad 8.0.2} date 2025-03-09T15:07:12+0100
; FORMAT={-:-/ absolute / inch / decimal}
; #@! TF.CreationDate,2025-03-09T15:07:12+01:00
; #@! TF.GenerationSoftware,Kicad,Pcbnew,8.0.2
; #@! TF.FileFunction,Plated,1,2,PTH
FMAT,2
INCH
; #@! TA.AperFunction,Plated,PTH,ViaDrill
T1C0.0118
; #@! TA.AperFunction,Plated,PTH,ComponentDrill
T2C0.0394
%
G90
G05
T1
X4.945Y-4.23
X4.965Y-3.53
X4.965Y-3.835
X4.965Y-3.91
X4.98Y-2.91
X5.0275Y-3.77
X5.04Y-3.415
X5.055Y-2.695
X5.055Y-2.93
X5.075Y-4.35
X5.0989Y-3.7802
X5.13Y-3.775
X5.14Y-3.52
X5.1414Y-3.5836
X5.145Y-4.305
X5.175Y-2.85
X5.1863Y-4.32
X5.2627Y-3.5227
X5.35Y-2.825
X5.37Y-4.23
X5.435Y-4.0
X5.4628Y-3.87
T2
X4.84Y-4.09
X4.94Y-4.09
X5.04Y-4.09
X5.14Y-4.09
X5.24Y-4.09
X5.34Y-4.09
X5.44Y-4.09
M30
