%TF.GenerationSoftware,KiCad,Pcbnew,8.0.2*%
%TF.CreationDate,2025-03-09T15:07:13+01:00*%
%TF.ProjectId,ledPcb,6c656450-6362-42e6-9b69-6361645f7063,rev?*%
%TF.SameCoordinates,Original*%
%TF.FileFunction,Copper,L2,Bot*%
%TF.FilePolarity,Positive*%
%FSLAX46Y46*%
G04 Gerber Fmt 4.6, Leading zero omitted, Abs format (unit mm)*
G04 Created by KiCad (PCBNEW 8.0.2) date 2025-03-09 15:07:13*
%MOMM*%
%LPD*%
G01*
G04 APERTURE LIST*
%TA.AperFunction,ComponentPad*%
%ADD10R,1.700000X1.700000*%
%TD*%
%TA.AperFunction,ComponentPad*%
%ADD11O,1.700000X1.700000*%
%TD*%
%TA.AperFunction,SMDPad,CuDef*%
%ADD12C,1.500000*%
%TD*%
%TA.AperFunction,SMDPad,CuDef*%
%ADD13R,0.610000X2.000000*%
%TD*%
%TA.AperFunction,SMDPad,CuDef*%
%ADD14R,2.680000X3.600000*%
%TD*%
%TA.AperFunction,SMDPad,CuDef*%
%ADD15R,1.500000X0.900000*%
%TD*%
%TA.AperFunction,ViaPad*%
%ADD16C,0.600000*%
%TD*%
%TA.AperFunction,Conductor*%
%ADD17C,0.200000*%
%TD*%
G04 APERTURE END LIST*
D10*
%TO.P,J1,1,Pin_1*%
%TO.N,LED1{slash}VCC*%
X138176000Y-103886000D03*
D11*
%TO.P,J1,2,Pin_2*%
%TO.N,LED2*%
X135636000Y-103886000D03*
%TO.P,J1,3,Pin_3*%
%TO.N,LED3*%
X133096000Y-103886000D03*
%TO.P,J1,4,Pin_4*%
%TO.N,LED4*%
X130556000Y-103886000D03*
%TO.P,J1,5,Pin_5*%
%TO.N,LED5{slash}RX*%
X128016000Y-103886000D03*
%TO.P,J1,6,Pin_6*%
%TO.N,LED6{slash}TX*%
X125476000Y-103886000D03*
%TO.P,J1,7,Pin_7*%
%TO.N,GND*%
X122936000Y-103886000D03*
%TD*%
D12*
%TO.P,J3,1,Pin_1*%
%TO.N,Net-(D12-DOUT)*%
X136779000Y-100203000D03*
%TD*%
D13*
%TO.P,J4,1,1*%
%TO.N,LED1{slash}VCC*%
X133704000Y-107690000D03*
%TO.P,J4,2,2*%
%TO.N,LED2*%
X132704000Y-107690000D03*
%TO.P,J4,3,3*%
%TO.N,LED3*%
X131704000Y-107690000D03*
%TO.P,J4,4,4*%
%TO.N,LED4*%
X130704000Y-107690000D03*
%TO.P,J4,5,5*%
%TO.N,LED5{slash}RX*%
X129704000Y-107690000D03*
%TO.P,J4,6,6*%
%TO.N,LED6{slash}TX*%
X128704000Y-107690000D03*
%TO.P,J4,7,7*%
%TO.N,GND*%
X127704000Y-107690000D03*
D14*
%TO.P,J4,S1,SHIELD*%
X136694000Y-110490000D03*
%TO.P,J4,S2,SHIELD*%
X124714000Y-110490000D03*
%TD*%
D15*
%TO.P,D10,1,VDD*%
%TO.N,LED1{slash}VCC*%
X132969000Y-85028000D03*
%TO.P,D10,2,DOUT*%
%TO.N,Net-(D10-DOUT)*%
X132969000Y-88328000D03*
%TO.P,D10,3,VSS*%
%TO.N,GND*%
X128069000Y-88328000D03*
%TO.P,D10,4,DIN*%
%TO.N,Net-(D10-DIN)*%
X128069000Y-85028000D03*
%TD*%
%TO.P,D11,1,VDD*%
%TO.N,LED1{slash}VCC*%
X132969000Y-91028000D03*
%TO.P,D11,2,DOUT*%
%TO.N,Net-(D11-DOUT)*%
X132969000Y-94328000D03*
%TO.P,D11,3,VSS*%
%TO.N,GND*%
X128069000Y-94328000D03*
%TO.P,D11,4,DIN*%
%TO.N,Net-(D10-DOUT)*%
X128069000Y-91028000D03*
%TD*%
%TO.P,D8,1,VDD*%
%TO.N,LED1{slash}VCC*%
X132969000Y-73028000D03*
%TO.P,D8,2,DOUT*%
%TO.N,Net-(D8-DOUT)*%
X132969000Y-76328000D03*
%TO.P,D8,3,VSS*%
%TO.N,GND*%
X128069000Y-76328000D03*
%TO.P,D8,4,DIN*%
%TO.N,Net-(D7-DOUT)*%
X128069000Y-73028000D03*
%TD*%
%TO.P,D9,1,VDD*%
%TO.N,LED1{slash}VCC*%
X132969000Y-79028000D03*
%TO.P,D9,2,DOUT*%
%TO.N,Net-(D10-DIN)*%
X132969000Y-82328000D03*
%TO.P,D9,3,VSS*%
%TO.N,GND*%
X128069000Y-82328000D03*
%TO.P,D9,4,DIN*%
%TO.N,Net-(D8-DOUT)*%
X128069000Y-79028000D03*
%TD*%
%TO.P,D12,1,VDD*%
%TO.N,LED1{slash}VCC*%
X132969000Y-97028000D03*
%TO.P,D12,2,DOUT*%
%TO.N,Net-(D12-DOUT)*%
X132969000Y-100328000D03*
%TO.P,D12,3,VSS*%
%TO.N,GND*%
X128069000Y-100328000D03*
%TO.P,D12,4,DIN*%
%TO.N,Net-(D11-DOUT)*%
X128069000Y-97028000D03*
%TD*%
%TO.P,D7,1,VDD*%
%TO.N,LED1{slash}VCC*%
X132969000Y-67028000D03*
%TO.P,D7,2,DOUT*%
%TO.N,Net-(D7-DOUT)*%
X132969000Y-70328000D03*
%TO.P,D7,3,VSS*%
%TO.N,GND*%
X128069000Y-70328000D03*
%TO.P,D7,4,DIN*%
%TO.N,LED2*%
X128069000Y-67028000D03*
%TD*%
D16*
%TO.N,GND*%
X128016000Y-86741000D03*
X133672235Y-89476235D03*
X125603000Y-107442000D03*
X136398000Y-107442000D03*
X128397000Y-68453000D03*
X128397000Y-74422000D03*
%TO.N,LED2*%
X126492000Y-73914000D03*
X135890000Y-71755000D03*
X138049000Y-101600000D03*
X138754000Y-98298000D03*
%TO.N,LED1{slash}VCC*%
X128905000Y-110490000D03*
X131445000Y-72390000D03*
%TO.N,LED3*%
X130683000Y-109347000D03*
X130302000Y-95885000D03*
X130556000Y-89408000D03*
X130591002Y-91024000D03*
%TO.N,LED5{slash}RX*%
X126111000Y-97409000D03*
X126111000Y-99314000D03*
X131731000Y-109728000D03*
%TO.N,LED4*%
X127699000Y-95758000D03*
X126111000Y-89662000D03*
X129512882Y-96016520D03*
%TD*%
D17*
%TO.N,GND*%
X128069000Y-86794000D02*
X128016000Y-86741000D01*
X130804529Y-91659000D02*
X130804529Y-91892471D01*
X134366000Y-88782470D02*
X133672235Y-89476235D01*
X124714000Y-108331000D02*
X125603000Y-107442000D01*
X130804529Y-91892471D02*
X128369000Y-94328000D01*
X128069000Y-70328000D02*
X128069000Y-68781000D01*
X124714000Y-110490000D02*
X126619000Y-112395000D01*
X133731000Y-86741000D02*
X134366000Y-87376000D01*
X124714000Y-110490000D02*
X127514000Y-107690000D01*
X124714000Y-110490000D02*
X124714000Y-108331000D01*
X126494000Y-100328000D02*
X122936000Y-103886000D01*
X134789000Y-112395000D02*
X136694000Y-110490000D01*
X128069000Y-74750000D02*
X128397000Y-74422000D01*
X126619000Y-112395000D02*
X134789000Y-112395000D01*
X134366000Y-87376000D02*
X134366000Y-88782470D01*
X127514000Y-107690000D02*
X127704000Y-107690000D01*
X128016000Y-86741000D02*
X133731000Y-86741000D01*
X122936000Y-103886000D02*
X122936000Y-108712000D01*
X131572000Y-90891529D02*
X130804529Y-91659000D01*
X128069000Y-100328000D02*
X126494000Y-100328000D01*
X122936000Y-108712000D02*
X124714000Y-110490000D01*
X132392765Y-89476235D02*
X131572000Y-90297000D01*
X128069000Y-76328000D02*
X128069000Y-74750000D01*
X128069000Y-88328000D02*
X128069000Y-86794000D01*
X133672235Y-89476235D02*
X132392765Y-89476235D01*
X128069000Y-68781000D02*
X128397000Y-68453000D01*
X128369000Y-94328000D02*
X128069000Y-94328000D01*
X131572000Y-90297000D02*
X131572000Y-90891529D01*
%TO.N,LED2*%
X132704000Y-106310000D02*
X135128000Y-103886000D01*
X138754000Y-74619000D02*
X135890000Y-71755000D01*
X126492000Y-68605000D02*
X126492000Y-73914000D01*
X135636000Y-103886000D02*
X137922000Y-101600000D01*
X132704000Y-107690000D02*
X132704000Y-106310000D01*
X138754000Y-98298000D02*
X138754000Y-74619000D01*
X135128000Y-103886000D02*
X135636000Y-103886000D01*
X135636000Y-103886000D02*
X134874000Y-103886000D01*
X128069000Y-67028000D02*
X126492000Y-68605000D01*
X137922000Y-101600000D02*
X138049000Y-101600000D01*
%TO.N,Net-(D7-DOUT)*%
X130769000Y-70328000D02*
X128069000Y-73028000D01*
X132969000Y-70328000D02*
X130769000Y-70328000D01*
%TO.N,LED1{slash}VCC*%
X132969000Y-97028000D02*
X134019000Y-95978000D01*
X133480000Y-73028000D02*
X132969000Y-73028000D01*
X134019000Y-95978000D02*
X134019000Y-92078000D01*
X134019000Y-92078000D02*
X132969000Y-91028000D01*
X132969000Y-79028000D02*
X133443000Y-79028000D01*
X132969000Y-85028000D02*
X134558000Y-85028000D01*
X134874000Y-79756000D02*
X134874000Y-85471000D01*
X134493000Y-68552000D02*
X134493000Y-71504000D01*
X134620000Y-74168000D02*
X133480000Y-73028000D01*
X132969000Y-97028000D02*
X132969000Y-97228000D01*
X138938000Y-99441000D02*
X138938000Y-103124000D01*
X134874000Y-89123000D02*
X132969000Y-91028000D01*
X132969000Y-67028000D02*
X134493000Y-68552000D01*
X132104000Y-110490000D02*
X128905000Y-110490000D01*
X131445000Y-72390000D02*
X132083000Y-73028000D01*
X132969000Y-79028000D02*
X134146000Y-79028000D01*
X134620000Y-77851000D02*
X134620000Y-74168000D01*
X132969000Y-97028000D02*
X136525000Y-97028000D01*
X133704000Y-107690000D02*
X133737000Y-107690000D01*
X137541000Y-103886000D02*
X138176000Y-103886000D01*
X133443000Y-79028000D02*
X134620000Y-77851000D01*
X136525000Y-97028000D02*
X138938000Y-99441000D01*
X134874000Y-85344000D02*
X134874000Y-85471000D01*
X134146000Y-79028000D02*
X134874000Y-79756000D01*
X133704000Y-107690000D02*
X133704000Y-108890000D01*
X134874000Y-85471000D02*
X134874000Y-89123000D01*
X132083000Y-73028000D02*
X132969000Y-73028000D01*
X138938000Y-103124000D02*
X138176000Y-103886000D01*
X138176000Y-103886000D02*
X137922000Y-103886000D01*
X133737000Y-107690000D02*
X137541000Y-103886000D01*
X134558000Y-85028000D02*
X134874000Y-85344000D01*
X134493000Y-71504000D02*
X132969000Y-73028000D01*
X133704000Y-108890000D02*
X132104000Y-110490000D01*
%TO.N,Net-(D8-DOUT)*%
X132969000Y-76328000D02*
X130769000Y-76328000D01*
X130769000Y-76328000D02*
X128069000Y-79028000D01*
%TO.N,Net-(D10-DIN)*%
X132969000Y-82328000D02*
X130769000Y-82328000D01*
X130769000Y-82328000D02*
X128069000Y-85028000D01*
%TO.N,Net-(D10-DOUT)*%
X130769000Y-88328000D02*
X128069000Y-91028000D01*
X132969000Y-88328000D02*
X130769000Y-88328000D01*
%TO.N,Net-(D11-DOUT)*%
X128069000Y-96467000D02*
X128069000Y-97028000D01*
X130208000Y-94328000D02*
X128069000Y-96467000D01*
X132969000Y-94328000D02*
X130208000Y-94328000D01*
%TO.N,Net-(D12-DOUT)*%
X132969000Y-100328000D02*
X136654000Y-100328000D01*
X136654000Y-100328000D02*
X136779000Y-100203000D01*
%TO.N,LED6{slash}TX*%
X128704000Y-106733000D02*
X125857000Y-103886000D01*
X128704000Y-107690000D02*
X128704000Y-106733000D01*
X125857000Y-103886000D02*
X125476000Y-103886000D01*
%TO.N,LED3*%
X130556000Y-90988998D02*
X130591002Y-91024000D01*
X131704000Y-108707000D02*
X131704000Y-107690000D01*
X130683000Y-109347000D02*
X131064000Y-109347000D01*
X131704000Y-105278000D02*
X133096000Y-103886000D01*
X131064000Y-109347000D02*
X131704000Y-108707000D01*
X130556000Y-89408000D02*
X130556000Y-90988998D01*
X130302000Y-95885000D02*
X130302000Y-101092000D01*
X131704000Y-107690000D02*
X131704000Y-105278000D01*
X130302000Y-101092000D02*
X133096000Y-103886000D01*
%TO.N,LED5{slash}RX*%
X131477000Y-109982000D02*
X131731000Y-109728000D01*
X130302000Y-109982000D02*
X131477000Y-109982000D01*
X126111000Y-99314000D02*
X126111000Y-97409000D01*
X129704000Y-105574000D02*
X128016000Y-103886000D01*
X129704000Y-107690000D02*
X129704000Y-109384000D01*
X129704000Y-107690000D02*
X129704000Y-105574000D01*
X129704000Y-109384000D02*
X130302000Y-109982000D01*
%TO.N,LED4*%
X129540000Y-102870000D02*
X130556000Y-103886000D01*
X126111000Y-94170000D02*
X126111000Y-89662000D01*
X129512882Y-96016520D02*
X129540000Y-96043638D01*
X130556000Y-107542000D02*
X130704000Y-107690000D01*
X130704000Y-104034000D02*
X130556000Y-103886000D01*
X130704000Y-107690000D02*
X130704000Y-104034000D01*
X127699000Y-95758000D02*
X126111000Y-94170000D01*
X129540000Y-96043638D02*
X129540000Y-102870000D01*
%TD*%
%TA.AperFunction,Conductor*%
%TO.N,GND*%
G36*
X123186000Y-105216633D02*
G01*
X123399483Y-105159433D01*
X123399492Y-105159429D01*
X123613578Y-105059600D01*
X123807082Y-104924105D01*
X123974105Y-104757082D01*
X124104119Y-104571405D01*
X124158696Y-104527781D01*
X124228195Y-104520588D01*
X124290549Y-104552110D01*
X124307269Y-104571405D01*
X124437505Y-104757401D01*
X124604599Y-104924495D01*
X124701384Y-104992265D01*
X124798165Y-105060032D01*
X124798167Y-105060033D01*
X124798170Y-105060035D01*
X125012337Y-105159903D01*
X125240592Y-105221063D01*
X125417034Y-105236500D01*
X125475999Y-105241659D01*
X125476000Y-105241659D01*
X125476001Y-105241659D01*
X125534966Y-105236500D01*
X125711408Y-105221063D01*
X125939663Y-105159903D01*
X126094215Y-105087833D01*
X126163291Y-105077342D01*
X126227075Y-105105862D01*
X126234300Y-105112535D01*
X127176676Y-106054911D01*
X127210161Y-106116234D01*
X127205177Y-106185926D01*
X127163307Y-106241858D01*
X127041809Y-106332812D01*
X126955649Y-106447906D01*
X126955645Y-106447913D01*
X126905403Y-106582620D01*
X126905401Y-106582627D01*
X126899000Y-106642155D01*
X126899000Y-107440000D01*
X127774500Y-107440000D01*
X127841539Y-107459685D01*
X127887294Y-107512489D01*
X127898500Y-107564000D01*
X127898500Y-108737870D01*
X127898501Y-108737876D01*
X127904908Y-108797483D01*
X127946182Y-108908141D01*
X127954000Y-108951474D01*
X127954000Y-109190000D01*
X128056828Y-109190000D01*
X128056844Y-109189999D01*
X128116372Y-109183598D01*
X128116375Y-109183597D01*
X128159949Y-109167345D01*
X128229640Y-109162359D01*
X128246611Y-109167342D01*
X128291517Y-109184091D01*
X128351127Y-109190500D01*
X128979499Y-109190499D01*
X129046538Y-109210183D01*
X129092293Y-109262987D01*
X129103499Y-109314499D01*
X129103499Y-109463054D01*
X129103498Y-109463054D01*
X129103499Y-109463057D01*
X129123770Y-109538711D01*
X129122108Y-109608560D01*
X129082946Y-109666423D01*
X129018717Y-109693927D01*
X128990113Y-109694024D01*
X128905004Y-109684435D01*
X128904996Y-109684435D01*
X128725750Y-109704630D01*
X128725745Y-109704631D01*
X128555476Y-109764211D01*
X128402737Y-109860184D01*
X128275184Y-109987737D01*
X128179211Y-110140476D01*
X128119631Y-110310745D01*
X128119630Y-110310750D01*
X128099435Y-110489996D01*
X128099435Y-110490003D01*
X128119630Y-110669249D01*
X128119631Y-110669254D01*
X128179211Y-110839523D01*
X128275184Y-110992262D01*
X128402738Y-111119816D01*
X128555478Y-111215789D01*
X128725745Y-111275368D01*
X128725750Y-111275369D01*
X128904996Y-111295565D01*
X128905000Y-111295565D01*
X128905004Y-111295565D01*
X129084249Y-111275369D01*
X129084252Y-111275368D01*
X129084255Y-111275368D01*
X129254522Y-111215789D01*
X129407262Y-111119816D01*
X129407267Y-111119810D01*
X129410097Y-111117555D01*
X129412275Y-111116665D01*
X129413158Y-111116111D01*
X129413255Y-111116265D01*
X129474783Y-111091145D01*
X129487412Y-111090500D01*
X132017331Y-111090500D01*
X132017347Y-111090501D01*
X132024943Y-111090501D01*
X132183054Y-111090501D01*
X132183057Y-111090501D01*
X132335785Y-111049577D01*
X132385904Y-111020639D01*
X132472716Y-110970520D01*
X132584520Y-110858716D01*
X132584520Y-110858714D01*
X132594728Y-110848507D01*
X132594729Y-110848504D01*
X134184520Y-109258716D01*
X134247968Y-109148817D01*
X134281042Y-109111552D01*
X134366546Y-109047546D01*
X134452796Y-108932331D01*
X134503091Y-108797483D01*
X134509500Y-108737873D01*
X134509500Y-108642155D01*
X134854000Y-108642155D01*
X134854000Y-110240000D01*
X136444000Y-110240000D01*
X136944000Y-110240000D01*
X138534000Y-110240000D01*
X138534000Y-108642172D01*
X138533999Y-108642155D01*
X138527598Y-108582627D01*
X138527596Y-108582620D01*
X138477354Y-108447913D01*
X138477350Y-108447906D01*
X138391190Y-108332812D01*
X138391187Y-108332809D01*
X138276093Y-108246649D01*
X138276086Y-108246645D01*
X138141379Y-108196403D01*
X138141372Y-108196401D01*
X138081844Y-108190000D01*
X136944000Y-108190000D01*
X136944000Y-110240000D01*
X136444000Y-110240000D01*
X136444000Y-108190000D01*
X135306155Y-108190000D01*
X135246627Y-108196401D01*
X135246620Y-108196403D01*
X135111913Y-108246645D01*
X135111906Y-108246649D01*
X134996812Y-108332809D01*
X134996809Y-108332812D01*
X134910649Y-108447906D01*
X134910645Y-108447913D01*
X134860403Y-108582620D01*
X134860401Y-108582627D01*
X134854000Y-108642155D01*
X134509500Y-108642155D01*
X134509499Y-107818095D01*
X134529183Y-107751057D01*
X134545813Y-107730420D01*
X137036621Y-105239612D01*
X137097942Y-105206129D01*
X137167633Y-105211113D01*
X137218517Y-105230091D01*
X137218516Y-105230091D01*
X137221242Y-105230384D01*
X137278127Y-105236500D01*
X139073872Y-105236499D01*
X139133483Y-105230091D01*
X139268331Y-105179796D01*
X139268333Y-105179794D01*
X139270070Y-105178847D01*
X139272005Y-105178425D01*
X139276641Y-105176697D01*
X139276889Y-105177363D01*
X139338342Y-105163993D01*
X139403807Y-105188407D01*
X139445680Y-105244340D01*
X139453500Y-105287677D01*
X139453500Y-114438572D01*
X139453184Y-114447419D01*
X139438869Y-114647557D01*
X139436351Y-114665068D01*
X139394646Y-114856787D01*
X139389662Y-114873763D01*
X139321090Y-115057609D01*
X139313740Y-115073701D01*
X139219711Y-115245904D01*
X139210146Y-115260789D01*
X139092558Y-115417867D01*
X139080972Y-115431237D01*
X138942237Y-115569972D01*
X138928867Y-115581558D01*
X138771789Y-115699146D01*
X138756904Y-115708711D01*
X138584701Y-115802740D01*
X138568609Y-115810090D01*
X138384763Y-115878662D01*
X138367787Y-115883646D01*
X138176068Y-115925351D01*
X138158557Y-115927869D01*
X137977779Y-115940799D01*
X137958417Y-115942184D01*
X137949572Y-115942500D01*
X137880717Y-115942500D01*
X137879506Y-115942579D01*
X123035489Y-115958494D01*
X123026510Y-115958178D01*
X122826443Y-115943869D01*
X122808931Y-115941351D01*
X122617212Y-115899646D01*
X122600236Y-115894662D01*
X122416390Y-115826090D01*
X122400298Y-115818740D01*
X122228095Y-115724711D01*
X122213210Y-115715146D01*
X122198935Y-115704460D01*
X122056132Y-115597558D01*
X122042762Y-115585972D01*
X121904027Y-115447237D01*
X121892441Y-115433867D01*
X121885776Y-115424964D01*
X121774849Y-115276784D01*
X121765288Y-115261904D01*
X121671259Y-115089701D01*
X121663909Y-115073609D01*
X121597123Y-114894551D01*
X121595334Y-114889755D01*
X121590355Y-114872797D01*
X121548647Y-114681063D01*
X121546130Y-114663556D01*
X121545618Y-114656401D01*
X121531816Y-114463418D01*
X121531500Y-114454572D01*
X121531500Y-112337844D01*
X122874000Y-112337844D01*
X122880401Y-112397372D01*
X122880403Y-112397379D01*
X122930645Y-112532086D01*
X122930649Y-112532093D01*
X123016809Y-112647187D01*
X123016812Y-112647190D01*
X123131906Y-112733350D01*
X123131913Y-112733354D01*
X123266620Y-112783596D01*
X123266627Y-112783598D01*
X123326155Y-112789999D01*
X123326172Y-112790000D01*
X124464000Y-112790000D01*
X124964000Y-112790000D01*
X126101828Y-112790000D01*
X126101844Y-112789999D01*
X126161372Y-112783598D01*
X126161379Y-112783596D01*
X126296086Y-112733354D01*
X126296093Y-112733350D01*
X126411187Y-112647190D01*
X126411190Y-112647187D01*
X126497350Y-112532093D01*
X126497354Y-112532086D01*
X126547596Y-112397379D01*
X126547598Y-112397372D01*
X126553999Y-112337844D01*
X134854000Y-112337844D01*
X134860401Y-112397372D01*
X134860403Y-112397379D01*
X134910645Y-112532086D01*
X134910649Y-112532093D01*
X134996809Y-112647187D01*
X134996812Y-112647190D01*
X135111906Y-112733350D01*
X135111913Y-112733354D01*
X135246620Y-112783596D01*
X135246627Y-112783598D01*
X135306155Y-112789999D01*
X135306172Y-112790000D01*
X136444000Y-112790000D01*
X136944000Y-112790000D01*
X138081828Y-112790000D01*
X138081844Y-112789999D01*
X138141372Y-112783598D01*
X138141379Y-112783596D01*
X138276086Y-112733354D01*
X138276093Y-112733350D01*
X138391187Y-112647190D01*
X138391190Y-112647187D01*
X138477350Y-112532093D01*
X138477354Y-112532086D01*
X138527596Y-112397379D01*
X138527598Y-112397372D01*
X138533999Y-112337844D01*
X138534000Y-112337827D01*
X138534000Y-110740000D01*
X136944000Y-110740000D01*
X136944000Y-112790000D01*
X136444000Y-112790000D01*
X136444000Y-110740000D01*
X134854000Y-110740000D01*
X134854000Y-112337844D01*
X126553999Y-112337844D01*
X126554000Y-112337827D01*
X126554000Y-110740000D01*
X124964000Y-110740000D01*
X124964000Y-112790000D01*
X124464000Y-112790000D01*
X124464000Y-110740000D01*
X122874000Y-110740000D01*
X122874000Y-112337844D01*
X121531500Y-112337844D01*
X121531500Y-108642155D01*
X122874000Y-108642155D01*
X122874000Y-110240000D01*
X124464000Y-110240000D01*
X124964000Y-110240000D01*
X126554000Y-110240000D01*
X126554000Y-108737844D01*
X126899000Y-108737844D01*
X126905401Y-108797372D01*
X126905403Y-108797379D01*
X126955645Y-108932086D01*
X126955649Y-108932093D01*
X127041809Y-109047187D01*
X127041812Y-109047190D01*
X127156906Y-109133350D01*
X127156913Y-109133354D01*
X127291620Y-109183596D01*
X127291627Y-109183598D01*
X127351155Y-109189999D01*
X127351172Y-109190000D01*
X127454000Y-109190000D01*
X127454000Y-107940000D01*
X126899000Y-107940000D01*
X126899000Y-108737844D01*
X126554000Y-108737844D01*
X126554000Y-108642172D01*
X126553999Y-108642155D01*
X126547598Y-108582627D01*
X126547596Y-108582620D01*
X126497354Y-108447913D01*
X126497350Y-108447906D01*
X126411190Y-108332812D01*
X126411187Y-108332809D01*
X126296093Y-108246649D01*
X126296086Y-108246645D01*
X126161379Y-108196403D01*
X126161372Y-108196401D01*
X126101844Y-108190000D01*
X124964000Y-108190000D01*
X124964000Y-110240000D01*
X124464000Y-110240000D01*
X124464000Y-108190000D01*
X123326155Y-108190000D01*
X123266627Y-108196401D01*
X123266620Y-108196403D01*
X123131913Y-108246645D01*
X123131906Y-108246649D01*
X123016812Y-108332809D01*
X123016809Y-108332812D01*
X122930649Y-108447906D01*
X122930645Y-108447913D01*
X122880403Y-108582620D01*
X122880401Y-108582627D01*
X122874000Y-108642155D01*
X121531500Y-108642155D01*
X121531500Y-104626422D01*
X121551185Y-104559383D01*
X121603989Y-104513628D01*
X121673147Y-104503684D01*
X121736703Y-104532709D01*
X121758808Y-104559484D01*
X121759295Y-104559144D01*
X121897894Y-104757082D01*
X122064917Y-104924105D01*
X122258421Y-105059600D01*
X122472507Y-105159429D01*
X122472516Y-105159433D01*
X122686000Y-105216634D01*
X122686000Y-104319012D01*
X122743007Y-104351925D01*
X122870174Y-104386000D01*
X123001826Y-104386000D01*
X123128993Y-104351925D01*
X123186000Y-104319012D01*
X123186000Y-105216633D01*
G37*
%TD.AperFunction*%
%TA.AperFunction,Conductor*%
G36*
X126851504Y-66036595D02*
G01*
X126918519Y-66056351D01*
X126964218Y-66109204D01*
X126974087Y-66178374D01*
X126950635Y-66234906D01*
X126875204Y-66335668D01*
X126875202Y-66335671D01*
X126824908Y-66470517D01*
X126821321Y-66503887D01*
X126818501Y-66530123D01*
X126818500Y-66530135D01*
X126818500Y-67377901D01*
X126798815Y-67444940D01*
X126782181Y-67465582D01*
X126123286Y-68124478D01*
X126011482Y-68236281D01*
X126011480Y-68236283D01*
X126002323Y-68252144D01*
X125995619Y-68263757D01*
X125932423Y-68373215D01*
X125891499Y-68525943D01*
X125891499Y-68525945D01*
X125891499Y-68694046D01*
X125891500Y-68694059D01*
X125891500Y-73331587D01*
X125871815Y-73398626D01*
X125864450Y-73408896D01*
X125862186Y-73411734D01*
X125766211Y-73564476D01*
X125706631Y-73734745D01*
X125706630Y-73734750D01*
X125686435Y-73913996D01*
X125686435Y-73914003D01*
X125706630Y-74093249D01*
X125706631Y-74093254D01*
X125766211Y-74263523D01*
X125778554Y-74283166D01*
X125862184Y-74416262D01*
X125989738Y-74543816D01*
X126142478Y-74639789D01*
X126309001Y-74698058D01*
X126312745Y-74699368D01*
X126312750Y-74699369D01*
X126491996Y-74719565D01*
X126492000Y-74719565D01*
X126492004Y-74719565D01*
X126671249Y-74699369D01*
X126671252Y-74699368D01*
X126671255Y-74699368D01*
X126841522Y-74639789D01*
X126994262Y-74543816D01*
X127121816Y-74416262D01*
X127217789Y-74263522D01*
X127277368Y-74093255D01*
X127277890Y-74088617D01*
X127304955Y-74024205D01*
X127362549Y-73984648D01*
X127401111Y-73978499D01*
X128866871Y-73978499D01*
X128866872Y-73978499D01*
X128926483Y-73972091D01*
X129061331Y-73921796D01*
X129176546Y-73835546D01*
X129262796Y-73720331D01*
X129313091Y-73585483D01*
X129319500Y-73525873D01*
X129319499Y-72678096D01*
X129339183Y-72611058D01*
X129355813Y-72590421D01*
X130981417Y-70964819D01*
X131042740Y-70931334D01*
X131069098Y-70928500D01*
X131654859Y-70928500D01*
X131721898Y-70948185D01*
X131767653Y-71000989D01*
X131771030Y-71009140D01*
X131775204Y-71020331D01*
X131775205Y-71020332D01*
X131775206Y-71020335D01*
X131861452Y-71135544D01*
X131861455Y-71135547D01*
X131976664Y-71221793D01*
X131976671Y-71221797D01*
X132111517Y-71272091D01*
X132111516Y-71272091D01*
X132118444Y-71272835D01*
X132171127Y-71278500D01*
X133569903Y-71278499D01*
X133636942Y-71298184D01*
X133682697Y-71350987D01*
X133692641Y-71420146D01*
X133663616Y-71483702D01*
X133657584Y-71490180D01*
X133106583Y-72041181D01*
X133045260Y-72074666D01*
X133018902Y-72077500D01*
X132262584Y-72077500D01*
X132195545Y-72057815D01*
X132157590Y-72019472D01*
X132119378Y-71958658D01*
X132074816Y-71887738D01*
X131947262Y-71760184D01*
X131939012Y-71755000D01*
X131794523Y-71664211D01*
X131624254Y-71604631D01*
X131624249Y-71604630D01*
X131445004Y-71584435D01*
X131444996Y-71584435D01*
X131265750Y-71604630D01*
X131265745Y-71604631D01*
X131095476Y-71664211D01*
X130942737Y-71760184D01*
X130815184Y-71887737D01*
X130719211Y-72040476D01*
X130659631Y-72210745D01*
X130659630Y-72210750D01*
X130639435Y-72389996D01*
X130639435Y-72390003D01*
X130659630Y-72569249D01*
X130659631Y-72569254D01*
X130719211Y-72739523D01*
X130799249Y-72866902D01*
X130815184Y-72892262D01*
X130942738Y-73019816D01*
X131095478Y-73115789D01*
X131265745Y-73175368D01*
X131352669Y-73185161D01*
X131417080Y-73212226D01*
X131426465Y-73220700D01*
X131598139Y-73392374D01*
X131598160Y-73392397D01*
X131685985Y-73480222D01*
X131719470Y-73541545D01*
X131721594Y-73554648D01*
X131724909Y-73585483D01*
X131775202Y-73720328D01*
X131775206Y-73720335D01*
X131861452Y-73835544D01*
X131861455Y-73835547D01*
X131976664Y-73921793D01*
X131976671Y-73921797D01*
X132111517Y-73972091D01*
X132111516Y-73972091D01*
X132118444Y-73972835D01*
X132171127Y-73978500D01*
X133529902Y-73978499D01*
X133596941Y-73998184D01*
X133617583Y-74014818D01*
X133983181Y-74380416D01*
X134016666Y-74441739D01*
X134019500Y-74468097D01*
X134019500Y-75277306D01*
X133999815Y-75344345D01*
X133947011Y-75390100D01*
X133877853Y-75400044D01*
X133852168Y-75393488D01*
X133826485Y-75383909D01*
X133826483Y-75383908D01*
X133766883Y-75377501D01*
X133766881Y-75377500D01*
X133766873Y-75377500D01*
X133766864Y-75377500D01*
X132171129Y-75377500D01*
X132171123Y-75377501D01*
X132111516Y-75383908D01*
X131976671Y-75434202D01*
X131976664Y-75434206D01*
X131861455Y-75520452D01*
X131861452Y-75520455D01*
X131775206Y-75635664D01*
X131775204Y-75635668D01*
X131775204Y-75635669D01*
X131771039Y-75646834D01*
X131729171Y-75702766D01*
X131663707Y-75727184D01*
X131654859Y-75727500D01*
X130855670Y-75727500D01*
X130855654Y-75727499D01*
X130848058Y-75727499D01*
X130689943Y-75727499D01*
X130613579Y-75747961D01*
X130537214Y-75768423D01*
X130537209Y-75768426D01*
X130400290Y-75847475D01*
X130400282Y-75847481D01*
X129530681Y-76717082D01*
X129469358Y-76750567D01*
X129399666Y-76745583D01*
X129343733Y-76703711D01*
X129319316Y-76638247D01*
X129319000Y-76629401D01*
X129319000Y-76578000D01*
X128319000Y-76578000D01*
X128319000Y-77278000D01*
X128670401Y-77278000D01*
X128737440Y-77297685D01*
X128783195Y-77350489D01*
X128793139Y-77419647D01*
X128764114Y-77483203D01*
X128758082Y-77489681D01*
X128206582Y-78041181D01*
X128145259Y-78074666D01*
X128118901Y-78077500D01*
X127271129Y-78077500D01*
X127271123Y-78077501D01*
X127211516Y-78083908D01*
X127076671Y-78134202D01*
X127076664Y-78134206D01*
X126961455Y-78220452D01*
X126961452Y-78220455D01*
X126875206Y-78335664D01*
X126875202Y-78335671D01*
X126824908Y-78470517D01*
X126818501Y-78530116D01*
X126818500Y-78530135D01*
X126818500Y-79525870D01*
X126818501Y-79525876D01*
X126824908Y-79585483D01*
X126875202Y-79720328D01*
X126875206Y-79720335D01*
X126961452Y-79835544D01*
X126961455Y-79835547D01*
X127076664Y-79921793D01*
X127076671Y-79921797D01*
X127211517Y-79972091D01*
X127211516Y-79972091D01*
X127218444Y-79972835D01*
X127271127Y-79978500D01*
X128866872Y-79978499D01*
X128926483Y-79972091D01*
X129061331Y-79921796D01*
X129176546Y-79835546D01*
X129262796Y-79720331D01*
X129313091Y-79585483D01*
X129319500Y-79525873D01*
X129319499Y-78678096D01*
X129339183Y-78611058D01*
X129355813Y-78590421D01*
X130981417Y-76964819D01*
X131042740Y-76931334D01*
X131069098Y-76928500D01*
X131654859Y-76928500D01*
X131721898Y-76948185D01*
X131767653Y-77000989D01*
X131771030Y-77009140D01*
X131775204Y-77020331D01*
X131775205Y-77020332D01*
X131775206Y-77020335D01*
X131861452Y-77135544D01*
X131861455Y-77135547D01*
X131976664Y-77221793D01*
X131976671Y-77221797D01*
X132111517Y-77272091D01*
X132111516Y-77272091D01*
X132118444Y-77272835D01*
X132171127Y-77278500D01*
X133766872Y-77278499D01*
X133826483Y-77272091D01*
X133852165Y-77262511D01*
X133921856Y-77257526D01*
X133983180Y-77291010D01*
X134016666Y-77352333D01*
X134019500Y-77378693D01*
X134019500Y-77550902D01*
X133999815Y-77617941D01*
X133983181Y-77638583D01*
X133580583Y-78041181D01*
X133519260Y-78074666D01*
X133492902Y-78077500D01*
X132171129Y-78077500D01*
X132171123Y-78077501D01*
X132111516Y-78083908D01*
X131976671Y-78134202D01*
X131976664Y-78134206D01*
X131861455Y-78220452D01*
X131861452Y-78220455D01*
X131775206Y-78335664D01*
X131775202Y-78335671D01*
X131724908Y-78470517D01*
X131718501Y-78530116D01*
X131718500Y-78530135D01*
X131718500Y-79525870D01*
X131718501Y-79525876D01*
X131724908Y-79585483D01*
X131775202Y-79720328D01*
X131775206Y-79720335D01*
X131861452Y-79835544D01*
X131861455Y-79835547D01*
X131976664Y-79921793D01*
X131976671Y-79921797D01*
X132111517Y-79972091D01*
X132111516Y-79972091D01*
X132118444Y-79972835D01*
X132171127Y-79978500D01*
X133766872Y-79978499D01*
X133826483Y-79972091D01*
X133961331Y-79921796D01*
X134006408Y-79888050D01*
X134071872Y-79863633D01*
X134140145Y-79878484D01*
X134168401Y-79899636D01*
X134237181Y-79968416D01*
X134270666Y-80029739D01*
X134273500Y-80056097D01*
X134273500Y-81420171D01*
X134253815Y-81487210D01*
X134201011Y-81532965D01*
X134131853Y-81542909D01*
X134075189Y-81519438D01*
X134032138Y-81487210D01*
X133961331Y-81434204D01*
X133961329Y-81434203D01*
X133961328Y-81434202D01*
X133826482Y-81383908D01*
X133826483Y-81383908D01*
X133766883Y-81377501D01*
X133766881Y-81377500D01*
X133766873Y-81377500D01*
X133766864Y-81377500D01*
X132171129Y-81377500D01*
X132171123Y-81377501D01*
X132111516Y-81383908D01*
X131976671Y-81434202D01*
X131976664Y-81434206D01*
X131861455Y-81520452D01*
X131861452Y-81520455D01*
X131775206Y-81635664D01*
X131775204Y-81635668D01*
X131775204Y-81635669D01*
X131771039Y-81646834D01*
X131729171Y-81702766D01*
X131663707Y-81727184D01*
X131654859Y-81727500D01*
X130855670Y-81727500D01*
X130855654Y-81727499D01*
X130848058Y-81727499D01*
X130689943Y-81727499D01*
X130613579Y-81747961D01*
X130537214Y-81768423D01*
X130537209Y-81768426D01*
X130400290Y-81847475D01*
X130400282Y-81847481D01*
X129530681Y-82717082D01*
X129469358Y-82750567D01*
X129399666Y-82745583D01*
X129343733Y-82703711D01*
X129319316Y-82638247D01*
X129319000Y-82629401D01*
X129319000Y-82578000D01*
X128319000Y-82578000D01*
X128319000Y-83278000D01*
X128670401Y-83278000D01*
X128737440Y-83297685D01*
X128783195Y-83350489D01*
X128793139Y-83419647D01*
X128764114Y-83483203D01*
X128758082Y-83489681D01*
X128206582Y-84041181D01*
X128145259Y-84074666D01*
X128118901Y-84077500D01*
X127271129Y-84077500D01*
X127271123Y-84077501D01*
X127211516Y-84083908D01*
X127076671Y-84134202D01*
X127076664Y-84134206D01*
X126961455Y-84220452D01*
X126961452Y-84220455D01*
X126875206Y-84335664D01*
X126875202Y-84335671D01*
X126824908Y-84470517D01*
X126818501Y-84530116D01*
X126818500Y-84530135D01*
X126818500Y-85525870D01*
X126818501Y-85525876D01*
X126824908Y-85585483D01*
X126875202Y-85720328D01*
X126875206Y-85720335D01*
X126961452Y-85835544D01*
X126961455Y-85835547D01*
X127076664Y-85921793D01*
X127076671Y-85921797D01*
X127211517Y-85972091D01*
X127211516Y-85972091D01*
X127218444Y-85972835D01*
X127271127Y-85978500D01*
X128866872Y-85978499D01*
X128926483Y-85972091D01*
X129061331Y-85921796D01*
X129176546Y-85835546D01*
X129262796Y-85720331D01*
X129313091Y-85585483D01*
X129319500Y-85525873D01*
X129319499Y-84678096D01*
X129339183Y-84611058D01*
X129355813Y-84590421D01*
X130981417Y-82964819D01*
X131042740Y-82931334D01*
X131069098Y-82928500D01*
X131654859Y-82928500D01*
X131721898Y-82948185D01*
X131767653Y-83000989D01*
X131771030Y-83009140D01*
X131775204Y-83020331D01*
X131775205Y-83020332D01*
X131775206Y-83020335D01*
X131861452Y-83135544D01*
X131861455Y-83135547D01*
X131976664Y-83221793D01*
X131976671Y-83221797D01*
X132111517Y-83272091D01*
X132111516Y-83272091D01*
X132118444Y-83272835D01*
X132171127Y-83278500D01*
X133766872Y-83278499D01*
X133826483Y-83272091D01*
X133961331Y-83221796D01*
X134075189Y-83136562D01*
X134140653Y-83112144D01*
X134208926Y-83126995D01*
X134258332Y-83176400D01*
X134273500Y-83235828D01*
X134273500Y-84120171D01*
X134253815Y-84187210D01*
X134201011Y-84232965D01*
X134131853Y-84242909D01*
X134075189Y-84219438D01*
X134032138Y-84187210D01*
X133961331Y-84134204D01*
X133961329Y-84134203D01*
X133961328Y-84134202D01*
X133826482Y-84083908D01*
X133826483Y-84083908D01*
X133766883Y-84077501D01*
X133766881Y-84077500D01*
X133766873Y-84077500D01*
X133766864Y-84077500D01*
X132171129Y-84077500D01*
X132171123Y-84077501D01*
X132111516Y-84083908D01*
X131976671Y-84134202D01*
X131976664Y-84134206D01*
X131861455Y-84220452D01*
X131861452Y-84220455D01*
X131775206Y-84335664D01*
X131775202Y-84335671D01*
X131724908Y-84470517D01*
X131718501Y-84530116D01*
X131718500Y-84530135D01*
X131718500Y-85525870D01*
X131718501Y-85525876D01*
X131724908Y-85585483D01*
X131775202Y-85720328D01*
X131775206Y-85720335D01*
X131861452Y-85835544D01*
X131861455Y-85835547D01*
X131976664Y-85921793D01*
X131976671Y-85921797D01*
X132111517Y-85972091D01*
X132111516Y-85972091D01*
X132118444Y-85972835D01*
X132171127Y-85978500D01*
X133766872Y-85978499D01*
X133826483Y-85972091D01*
X133961331Y-85921796D01*
X134075189Y-85836562D01*
X134140653Y-85812144D01*
X134208926Y-85826995D01*
X134258332Y-85876400D01*
X134273500Y-85935828D01*
X134273500Y-87420171D01*
X134253815Y-87487210D01*
X134201011Y-87532965D01*
X134131853Y-87542909D01*
X134075189Y-87519438D01*
X134032138Y-87487210D01*
X133961331Y-87434204D01*
X133961329Y-87434203D01*
X133961328Y-87434202D01*
X133826482Y-87383908D01*
X133826483Y-87383908D01*
X133766883Y-87377501D01*
X133766881Y-87377500D01*
X133766873Y-87377500D01*
X133766864Y-87377500D01*
X132171129Y-87377500D01*
X132171123Y-87377501D01*
X132111516Y-87383908D01*
X131976671Y-87434202D01*
X131976664Y-87434206D01*
X131861455Y-87520452D01*
X131861452Y-87520455D01*
X131775206Y-87635664D01*
X131775204Y-87635668D01*
X131775204Y-87635669D01*
X131771039Y-87646834D01*
X131729171Y-87702766D01*
X131663707Y-87727184D01*
X131654859Y-87727500D01*
X130855670Y-87727500D01*
X130855654Y-87727499D01*
X130848058Y-87727499D01*
X130689943Y-87727499D01*
X130613579Y-87747961D01*
X130537214Y-87768423D01*
X130537209Y-87768426D01*
X130400290Y-87847475D01*
X130400282Y-87847481D01*
X129530681Y-88717082D01*
X129469358Y-88750567D01*
X129399666Y-88745583D01*
X129343733Y-88703711D01*
X129319316Y-88638247D01*
X129319000Y-88629401D01*
X129319000Y-88578000D01*
X128319000Y-88578000D01*
X128319000Y-89278000D01*
X128670401Y-89278000D01*
X128737440Y-89297685D01*
X128783195Y-89350489D01*
X128793139Y-89419647D01*
X128764114Y-89483203D01*
X128758082Y-89489681D01*
X128206582Y-90041181D01*
X128145259Y-90074666D01*
X128118901Y-90077500D01*
X127271129Y-90077500D01*
X127271123Y-90077501D01*
X127211516Y-90083908D01*
X127076671Y-90134202D01*
X127076668Y-90134204D01*
X127012784Y-90182028D01*
X126947319Y-90206445D01*
X126879046Y-90191593D01*
X126829641Y-90142188D01*
X126814789Y-90073915D01*
X126833483Y-90016783D01*
X126836789Y-90011522D01*
X126896368Y-89841255D01*
X126896369Y-89841249D01*
X126916565Y-89662003D01*
X126916565Y-89661996D01*
X126896369Y-89482750D01*
X126896367Y-89482742D01*
X126842757Y-89329532D01*
X126839196Y-89259754D01*
X126873925Y-89199126D01*
X126935918Y-89166899D01*
X127005494Y-89173304D01*
X127034111Y-89189312D01*
X127076910Y-89221352D01*
X127076913Y-89221354D01*
X127211620Y-89271596D01*
X127211627Y-89271598D01*
X127271155Y-89277999D01*
X127271172Y-89278000D01*
X127819000Y-89278000D01*
X127819000Y-88578000D01*
X126819000Y-88578000D01*
X126819000Y-88825844D01*
X126825401Y-88885372D01*
X126825404Y-88885383D01*
X126839719Y-88923765D01*
X126844703Y-88993457D01*
X126811217Y-89054780D01*
X126749893Y-89088264D01*
X126680202Y-89083278D01*
X126635856Y-89054778D01*
X126613262Y-89032184D01*
X126460523Y-88936211D01*
X126290254Y-88876631D01*
X126290249Y-88876630D01*
X126111004Y-88856435D01*
X126110996Y-88856435D01*
X125931750Y-88876630D01*
X125931745Y-88876631D01*
X125761476Y-88936211D01*
X125608737Y-89032184D01*
X125481184Y-89159737D01*
X125385211Y-89312476D01*
X125325631Y-89482745D01*
X125325630Y-89482750D01*
X125305435Y-89661996D01*
X125305435Y-89662003D01*
X125325630Y-89841249D01*
X125325631Y-89841254D01*
X125385211Y-90011523D01*
X125481185Y-90164263D01*
X125483445Y-90167097D01*
X125484334Y-90169275D01*
X125484889Y-90170158D01*
X125484734Y-90170255D01*
X125509855Y-90231783D01*
X125510500Y-90244412D01*
X125510500Y-94083330D01*
X125510499Y-94083348D01*
X125510499Y-94249054D01*
X125510498Y-94249054D01*
X125551423Y-94401786D01*
X125554461Y-94407046D01*
X125554464Y-94407058D01*
X125554467Y-94407057D01*
X125630477Y-94538712D01*
X125630481Y-94538717D01*
X125749349Y-94657585D01*
X125749355Y-94657590D01*
X126868298Y-95776533D01*
X126901783Y-95837856D01*
X126903837Y-95850330D01*
X126913630Y-95937249D01*
X126974571Y-96111410D01*
X126978132Y-96181189D01*
X126956796Y-96226674D01*
X126875206Y-96335665D01*
X126875202Y-96335671D01*
X126824908Y-96470517D01*
X126818501Y-96530116D01*
X126818500Y-96530135D01*
X126818500Y-96685367D01*
X126798815Y-96752406D01*
X126746011Y-96798161D01*
X126676853Y-96808105D01*
X126617189Y-96782316D01*
X126613264Y-96779186D01*
X126613262Y-96779184D01*
X126568961Y-96751348D01*
X126460523Y-96683211D01*
X126290254Y-96623631D01*
X126290249Y-96623630D01*
X126111004Y-96603435D01*
X126110996Y-96603435D01*
X125931750Y-96623630D01*
X125931745Y-96623631D01*
X125761476Y-96683211D01*
X125608737Y-96779184D01*
X125481184Y-96906737D01*
X125385211Y-97059476D01*
X125325631Y-97229745D01*
X125325630Y-97229750D01*
X125305435Y-97408996D01*
X125305435Y-97409003D01*
X125325630Y-97588249D01*
X125325631Y-97588254D01*
X125385211Y-97758523D01*
X125430269Y-97830232D01*
X125478279Y-97906639D01*
X125481185Y-97911263D01*
X125483445Y-97914097D01*
X125484334Y-97916275D01*
X125484889Y-97917158D01*
X125484734Y-97917255D01*
X125509855Y-97978783D01*
X125510500Y-97991412D01*
X125510500Y-98731587D01*
X125490815Y-98798626D01*
X125483450Y-98808896D01*
X125481184Y-98811737D01*
X125442662Y-98873044D01*
X125390327Y-98919335D01*
X125321274Y-98929982D01*
X125257426Y-98901607D01*
X125219738Y-98845389D01*
X125208804Y-98811738D01*
X125203557Y-98795588D01*
X125107051Y-98606184D01*
X125107049Y-98606181D01*
X125107048Y-98606179D01*
X124982109Y-98434213D01*
X124831786Y-98283890D01*
X124659820Y-98158951D01*
X124470414Y-98062444D01*
X124470413Y-98062443D01*
X124470412Y-98062443D01*
X124268243Y-97996754D01*
X124268241Y-97996753D01*
X124268240Y-97996753D01*
X124106957Y-97971208D01*
X124058287Y-97963500D01*
X123845713Y-97963500D01*
X123797042Y-97971208D01*
X123635760Y-97996753D01*
X123433585Y-98062444D01*
X123244179Y-98158951D01*
X123072213Y-98283890D01*
X122921890Y-98434213D01*
X122796951Y-98606179D01*
X122700444Y-98795585D01*
X122634753Y-98997760D01*
X122601500Y-99207713D01*
X122601500Y-99420286D01*
X122626061Y-99575362D01*
X122634754Y-99630243D01*
X122699703Y-99830135D01*
X122700444Y-99832414D01*
X122796951Y-100021820D01*
X122921890Y-100193786D01*
X123072213Y-100344109D01*
X123244179Y-100469048D01*
X123244181Y-100469049D01*
X123244184Y-100469051D01*
X123433588Y-100565557D01*
X123635757Y-100631246D01*
X123845713Y-100664500D01*
X123845714Y-100664500D01*
X124058286Y-100664500D01*
X124058287Y-100664500D01*
X124268243Y-100631246D01*
X124470412Y-100565557D01*
X124659816Y-100469051D01*
X124725985Y-100420977D01*
X124831786Y-100344109D01*
X124831788Y-100344106D01*
X124831792Y-100344104D01*
X124982104Y-100193792D01*
X124982106Y-100193788D01*
X124982109Y-100193786D01*
X125107048Y-100021820D01*
X125107047Y-100021820D01*
X125107051Y-100021816D01*
X125203557Y-99832412D01*
X125219738Y-99782609D01*
X125259175Y-99724935D01*
X125323533Y-99697736D01*
X125392380Y-99709650D01*
X125442662Y-99754955D01*
X125481184Y-99816262D01*
X125608738Y-99943816D01*
X125674320Y-99985024D01*
X125732880Y-100021820D01*
X125761478Y-100039789D01*
X125870679Y-100078000D01*
X125931745Y-100099368D01*
X125931750Y-100099369D01*
X126110996Y-100119565D01*
X126111000Y-100119565D01*
X126111004Y-100119565D01*
X126290249Y-100099369D01*
X126290252Y-100099368D01*
X126290255Y-100099368D01*
X126460522Y-100039789D01*
X126613262Y-99943816D01*
X126613268Y-99943809D01*
X126617682Y-99940290D01*
X126682367Y-99913878D01*
X126751063Y-99926630D01*
X126801959Y-99974498D01*
X126819000Y-100037233D01*
X126819000Y-100078000D01*
X127819000Y-100078000D01*
X127819000Y-99378000D01*
X127271155Y-99378000D01*
X127211627Y-99384401D01*
X127211619Y-99384403D01*
X127083898Y-99432040D01*
X127014206Y-99437024D01*
X126952883Y-99403539D01*
X126919399Y-99342215D01*
X126916565Y-99315858D01*
X126916565Y-99313996D01*
X126896369Y-99134750D01*
X126896368Y-99134745D01*
X126889773Y-99115898D01*
X126836789Y-98964478D01*
X126740816Y-98811738D01*
X126740814Y-98811736D01*
X126740813Y-98811734D01*
X126738550Y-98808896D01*
X126737659Y-98806715D01*
X126737111Y-98805842D01*
X126737264Y-98805745D01*
X126712144Y-98744209D01*
X126711500Y-98731587D01*
X126711500Y-97991412D01*
X126731185Y-97924373D01*
X126738555Y-97914097D01*
X126740815Y-97911263D01*
X126740816Y-97911262D01*
X126772446Y-97860922D01*
X126824780Y-97814631D01*
X126893834Y-97803982D01*
X126953991Y-97830717D01*
X126954355Y-97830232D01*
X126956480Y-97831822D01*
X126957682Y-97832357D01*
X126959795Y-97834304D01*
X127076664Y-97921793D01*
X127076671Y-97921797D01*
X127211517Y-97972091D01*
X127211516Y-97972091D01*
X127218444Y-97972835D01*
X127271127Y-97978500D01*
X128815500Y-97978499D01*
X128882539Y-97998184D01*
X128928294Y-98050987D01*
X128939500Y-98102499D01*
X128939500Y-99254000D01*
X128919815Y-99321039D01*
X128867011Y-99366794D01*
X128815500Y-99378000D01*
X128319000Y-99378000D01*
X128319000Y-101278000D01*
X128815500Y-101278000D01*
X128882539Y-101297685D01*
X128928294Y-101350489D01*
X128939500Y-101402000D01*
X128939500Y-102645783D01*
X128919815Y-102712822D01*
X128867011Y-102758577D01*
X128797853Y-102768521D01*
X128744377Y-102747358D01*
X128693834Y-102711967D01*
X128693830Y-102711965D01*
X128693828Y-102711964D01*
X128479663Y-102612097D01*
X128479659Y-102612096D01*
X128479655Y-102612094D01*
X128251413Y-102550938D01*
X128251403Y-102550936D01*
X128016001Y-102530341D01*
X128015999Y-102530341D01*
X127780596Y-102550936D01*
X127780586Y-102550938D01*
X127552344Y-102612094D01*
X127552335Y-102612098D01*
X127338171Y-102711964D01*
X127338169Y-102711965D01*
X127144597Y-102847505D01*
X126977505Y-103014597D01*
X126847575Y-103200158D01*
X126792998Y-103243783D01*
X126723500Y-103250977D01*
X126661145Y-103219454D01*
X126644425Y-103200158D01*
X126514494Y-103014597D01*
X126347402Y-102847506D01*
X126347395Y-102847501D01*
X126153834Y-102711967D01*
X126153830Y-102711965D01*
X126153828Y-102711964D01*
X125939663Y-102612097D01*
X125939659Y-102612096D01*
X125939655Y-102612094D01*
X125711413Y-102550938D01*
X125711403Y-102550936D01*
X125476001Y-102530341D01*
X125475999Y-102530341D01*
X125240596Y-102550936D01*
X125240586Y-102550938D01*
X125012344Y-102612094D01*
X125012335Y-102612098D01*
X124798171Y-102711964D01*
X124798169Y-102711965D01*
X124604597Y-102847505D01*
X124437508Y-103014594D01*
X124307269Y-103200595D01*
X124252692Y-103244219D01*
X124183193Y-103251412D01*
X124120839Y-103219890D01*
X124104119Y-103200594D01*
X123974113Y-103014926D01*
X123974108Y-103014920D01*
X123807082Y-102847894D01*
X123613578Y-102712399D01*
X123399492Y-102612570D01*
X123399486Y-102612567D01*
X123186000Y-102555364D01*
X123186000Y-103452988D01*
X123128993Y-103420075D01*
X123001826Y-103386000D01*
X122870174Y-103386000D01*
X122743007Y-103420075D01*
X122686000Y-103452988D01*
X122686000Y-102555364D01*
X122685999Y-102555364D01*
X122472513Y-102612567D01*
X122472507Y-102612570D01*
X122258422Y-102712399D01*
X122258420Y-102712400D01*
X122064926Y-102847886D01*
X122064920Y-102847891D01*
X121897891Y-103014920D01*
X121897886Y-103014926D01*
X121759295Y-103212856D01*
X121758175Y-103212071D01*
X121712318Y-103255795D01*
X121643711Y-103269016D01*
X121578847Y-103243047D01*
X121538319Y-103186132D01*
X121531500Y-103145578D01*
X121531500Y-100825844D01*
X126819000Y-100825844D01*
X126825401Y-100885372D01*
X126825403Y-100885379D01*
X126875645Y-101020086D01*
X126875649Y-101020093D01*
X126961809Y-101135187D01*
X126961812Y-101135190D01*
X127076906Y-101221350D01*
X127076913Y-101221354D01*
X127211620Y-101271596D01*
X127211627Y-101271598D01*
X127271155Y-101277999D01*
X127271172Y-101278000D01*
X127819000Y-101278000D01*
X127819000Y-100578000D01*
X126819000Y-100578000D01*
X126819000Y-100825844D01*
X121531500Y-100825844D01*
X121531500Y-87830155D01*
X126819000Y-87830155D01*
X126819000Y-88078000D01*
X127819000Y-88078000D01*
X128319000Y-88078000D01*
X129319000Y-88078000D01*
X129319000Y-87830172D01*
X129318999Y-87830155D01*
X129312598Y-87770627D01*
X129312596Y-87770620D01*
X129262354Y-87635913D01*
X129262350Y-87635906D01*
X129176190Y-87520812D01*
X129176187Y-87520809D01*
X129061093Y-87434649D01*
X129061086Y-87434645D01*
X128926379Y-87384403D01*
X128926372Y-87384401D01*
X128866844Y-87378000D01*
X128319000Y-87378000D01*
X128319000Y-88078000D01*
X127819000Y-88078000D01*
X127819000Y-87378000D01*
X127271155Y-87378000D01*
X127211627Y-87384401D01*
X127211620Y-87384403D01*
X127076913Y-87434645D01*
X127076906Y-87434649D01*
X126961812Y-87520809D01*
X126961809Y-87520812D01*
X126875649Y-87635906D01*
X126875645Y-87635913D01*
X126825403Y-87770620D01*
X126825401Y-87770627D01*
X126819000Y-87830155D01*
X121531500Y-87830155D01*
X121531500Y-82825844D01*
X126819000Y-82825844D01*
X126825401Y-82885372D01*
X126825403Y-82885379D01*
X126875645Y-83020086D01*
X126875649Y-83020093D01*
X126961809Y-83135187D01*
X126961812Y-83135190D01*
X127076906Y-83221350D01*
X127076913Y-83221354D01*
X127211620Y-83271596D01*
X127211627Y-83271598D01*
X127271155Y-83277999D01*
X127271172Y-83278000D01*
X127819000Y-83278000D01*
X127819000Y-82578000D01*
X126819000Y-82578000D01*
X126819000Y-82825844D01*
X121531500Y-82825844D01*
X121531500Y-81830155D01*
X126819000Y-81830155D01*
X126819000Y-82078000D01*
X127819000Y-82078000D01*
X128319000Y-82078000D01*
X129319000Y-82078000D01*
X129319000Y-81830172D01*
X129318999Y-81830155D01*
X129312598Y-81770627D01*
X129312596Y-81770620D01*
X129262354Y-81635913D01*
X129262350Y-81635906D01*
X129176190Y-81520812D01*
X129176187Y-81520809D01*
X129061093Y-81434649D01*
X129061086Y-81434645D01*
X128926379Y-81384403D01*
X128926372Y-81384401D01*
X128866844Y-81378000D01*
X128319000Y-81378000D01*
X128319000Y-82078000D01*
X127819000Y-82078000D01*
X127819000Y-81378000D01*
X127271155Y-81378000D01*
X127211627Y-81384401D01*
X127211620Y-81384403D01*
X127076913Y-81434645D01*
X127076906Y-81434649D01*
X126961812Y-81520809D01*
X126961809Y-81520812D01*
X126875649Y-81635906D01*
X126875645Y-81635913D01*
X126825403Y-81770620D01*
X126825401Y-81770627D01*
X126819000Y-81830155D01*
X121531500Y-81830155D01*
X121531500Y-76825844D01*
X126819000Y-76825844D01*
X126825401Y-76885372D01*
X126825403Y-76885379D01*
X126875645Y-77020086D01*
X126875649Y-77020093D01*
X126961809Y-77135187D01*
X126961812Y-77135190D01*
X127076906Y-77221350D01*
X127076913Y-77221354D01*
X127211620Y-77271596D01*
X127211627Y-77271598D01*
X127271155Y-77277999D01*
X127271172Y-77278000D01*
X127819000Y-77278000D01*
X127819000Y-76578000D01*
X126819000Y-76578000D01*
X126819000Y-76825844D01*
X121531500Y-76825844D01*
X121531500Y-75830155D01*
X126819000Y-75830155D01*
X126819000Y-76078000D01*
X127819000Y-76078000D01*
X128319000Y-76078000D01*
X129319000Y-76078000D01*
X129319000Y-75830172D01*
X129318999Y-75830155D01*
X129312598Y-75770627D01*
X129312596Y-75770620D01*
X129262354Y-75635913D01*
X129262350Y-75635906D01*
X129176190Y-75520812D01*
X129176187Y-75520809D01*
X129061093Y-75434649D01*
X129061086Y-75434645D01*
X128926379Y-75384403D01*
X128926372Y-75384401D01*
X128866844Y-75378000D01*
X128319000Y-75378000D01*
X128319000Y-76078000D01*
X127819000Y-76078000D01*
X127819000Y-75378000D01*
X127271155Y-75378000D01*
X127211627Y-75384401D01*
X127211620Y-75384403D01*
X127076913Y-75434645D01*
X127076906Y-75434649D01*
X126961812Y-75520809D01*
X126961809Y-75520812D01*
X126875649Y-75635906D01*
X126875645Y-75635913D01*
X126825403Y-75770620D01*
X126825401Y-75770627D01*
X126819000Y-75830155D01*
X121531500Y-75830155D01*
X121531500Y-67536427D01*
X121531816Y-67527581D01*
X121546130Y-67327436D01*
X121548646Y-67309938D01*
X121590356Y-67118199D01*
X121595333Y-67101248D01*
X121663911Y-66917385D01*
X121671259Y-66901298D01*
X121765291Y-66729089D01*
X121774845Y-66714221D01*
X121892448Y-66557123D01*
X121904020Y-66543769D01*
X122042769Y-66405020D01*
X122056123Y-66393448D01*
X122213221Y-66275845D01*
X122228089Y-66266291D01*
X122400298Y-66172258D01*
X122416385Y-66164911D01*
X122600248Y-66096333D01*
X122617199Y-66091356D01*
X122808938Y-66049646D01*
X122826434Y-66047131D01*
X123026534Y-66032819D01*
X123035466Y-66032504D01*
X126851504Y-66036595D01*
G37*
%TD.AperFunction*%
%TA.AperFunction,Conductor*%
G36*
X131721898Y-88948185D02*
G01*
X131767653Y-89000989D01*
X131771030Y-89009140D01*
X131775204Y-89020331D01*
X131775205Y-89020332D01*
X131775206Y-89020335D01*
X131861452Y-89135544D01*
X131861455Y-89135547D01*
X131976664Y-89221793D01*
X131976671Y-89221797D01*
X132111517Y-89272091D01*
X132111516Y-89272091D01*
X132118444Y-89272835D01*
X132171127Y-89278500D01*
X133569902Y-89278499D01*
X133636941Y-89298184D01*
X133682696Y-89350987D01*
X133692640Y-89420146D01*
X133663615Y-89483702D01*
X133657583Y-89490180D01*
X133106582Y-90041181D01*
X133045259Y-90074666D01*
X133018901Y-90077500D01*
X132171129Y-90077500D01*
X132171123Y-90077501D01*
X132111516Y-90083908D01*
X131976671Y-90134202D01*
X131976664Y-90134206D01*
X131861455Y-90220452D01*
X131861452Y-90220455D01*
X131775206Y-90335664D01*
X131775202Y-90335671D01*
X131724908Y-90470517D01*
X131718501Y-90530116D01*
X131718500Y-90530135D01*
X131718500Y-91525870D01*
X131718501Y-91525876D01*
X131724908Y-91585483D01*
X131775202Y-91720328D01*
X131775206Y-91720335D01*
X131861452Y-91835544D01*
X131861455Y-91835547D01*
X131976664Y-91921793D01*
X131976671Y-91921797D01*
X132111517Y-91972091D01*
X132111516Y-91972091D01*
X132118444Y-91972835D01*
X132171127Y-91978500D01*
X133018902Y-91978499D01*
X133085941Y-91998183D01*
X133106583Y-92014818D01*
X133382181Y-92290416D01*
X133415666Y-92351739D01*
X133418500Y-92378097D01*
X133418500Y-93253500D01*
X133398815Y-93320539D01*
X133346011Y-93366294D01*
X133294500Y-93377500D01*
X132171129Y-93377500D01*
X132171123Y-93377501D01*
X132111516Y-93383908D01*
X131976671Y-93434202D01*
X131976664Y-93434206D01*
X131861455Y-93520452D01*
X131861452Y-93520455D01*
X131775206Y-93635664D01*
X131775204Y-93635668D01*
X131775204Y-93635669D01*
X131771039Y-93646834D01*
X131729171Y-93702766D01*
X131663707Y-93727184D01*
X131654859Y-93727500D01*
X130294670Y-93727500D01*
X130294654Y-93727499D01*
X130287058Y-93727499D01*
X130128943Y-93727499D01*
X130021587Y-93756265D01*
X129976210Y-93768424D01*
X129976209Y-93768425D01*
X129926096Y-93797359D01*
X129926095Y-93797360D01*
X129882689Y-93822420D01*
X129839285Y-93847479D01*
X129839282Y-93847481D01*
X129530681Y-94156083D01*
X129469358Y-94189568D01*
X129399666Y-94184584D01*
X129343733Y-94142712D01*
X129319316Y-94077248D01*
X129319000Y-94068402D01*
X129319000Y-93830172D01*
X129318999Y-93830155D01*
X129312598Y-93770627D01*
X129312596Y-93770620D01*
X129262354Y-93635913D01*
X129262350Y-93635906D01*
X129176190Y-93520812D01*
X129176187Y-93520809D01*
X129061093Y-93434649D01*
X129061086Y-93434645D01*
X128926379Y-93384403D01*
X128926372Y-93384401D01*
X128866844Y-93378000D01*
X128319000Y-93378000D01*
X128319000Y-94454000D01*
X128299315Y-94521039D01*
X128246511Y-94566794D01*
X128195000Y-94578000D01*
X127943000Y-94578000D01*
X127875961Y-94558315D01*
X127830206Y-94505511D01*
X127819000Y-94454000D01*
X127819000Y-93378000D01*
X127271155Y-93378000D01*
X127211627Y-93384401D01*
X127211620Y-93384403D01*
X127076913Y-93434645D01*
X127076906Y-93434649D01*
X126961812Y-93520809D01*
X126934766Y-93556938D01*
X126878832Y-93598809D01*
X126809140Y-93603792D01*
X126747817Y-93570306D01*
X126714333Y-93508982D01*
X126711500Y-93482626D01*
X126711500Y-91874207D01*
X126731185Y-91807168D01*
X126783989Y-91761413D01*
X126853147Y-91751469D01*
X126916703Y-91780494D01*
X126934763Y-91799892D01*
X126961454Y-91835546D01*
X126975706Y-91846215D01*
X127076664Y-91921793D01*
X127076671Y-91921797D01*
X127211517Y-91972091D01*
X127211516Y-91972091D01*
X127218444Y-91972835D01*
X127271127Y-91978500D01*
X128866872Y-91978499D01*
X128926483Y-91972091D01*
X129061331Y-91921796D01*
X129176546Y-91835546D01*
X129262796Y-91720331D01*
X129313091Y-91585483D01*
X129319500Y-91525873D01*
X129319499Y-90678096D01*
X129339183Y-90611058D01*
X129355813Y-90590421D01*
X129743819Y-90202416D01*
X129805142Y-90168931D01*
X129874834Y-90173915D01*
X129930767Y-90215787D01*
X129955184Y-90281251D01*
X129955500Y-90290097D01*
X129955500Y-90495062D01*
X129936494Y-90561034D01*
X129865213Y-90674476D01*
X129805633Y-90844745D01*
X129805632Y-90844750D01*
X129785437Y-91023996D01*
X129785437Y-91024003D01*
X129805632Y-91203249D01*
X129805633Y-91203254D01*
X129865213Y-91373523D01*
X129900238Y-91429264D01*
X129961186Y-91526262D01*
X130088740Y-91653816D01*
X130177017Y-91709284D01*
X130241476Y-91749787D01*
X130241480Y-91749789D01*
X130329230Y-91780494D01*
X130411747Y-91809368D01*
X130411752Y-91809369D01*
X130590998Y-91829565D01*
X130591002Y-91829565D01*
X130591006Y-91829565D01*
X130770251Y-91809369D01*
X130770254Y-91809368D01*
X130770257Y-91809368D01*
X130940524Y-91749789D01*
X131093264Y-91653816D01*
X131220818Y-91526262D01*
X131316791Y-91373522D01*
X131376370Y-91203255D01*
X131396567Y-91024000D01*
X131376370Y-90844745D01*
X131316791Y-90674478D01*
X131220818Y-90521738D01*
X131192819Y-90493739D01*
X131159334Y-90432416D01*
X131156500Y-90406058D01*
X131156500Y-89990412D01*
X131176185Y-89923373D01*
X131183555Y-89913097D01*
X131185810Y-89910267D01*
X131185816Y-89910262D01*
X131281789Y-89757522D01*
X131341368Y-89587255D01*
X131353143Y-89482750D01*
X131361565Y-89408003D01*
X131361565Y-89407996D01*
X131341369Y-89228750D01*
X131341368Y-89228745D01*
X131294028Y-89093455D01*
X131290467Y-89023676D01*
X131325196Y-88963048D01*
X131387189Y-88930821D01*
X131411070Y-88928500D01*
X131654859Y-88928500D01*
X131721898Y-88948185D01*
G37*
%TD.AperFunction*%
%TA.AperFunction,Conductor*%
G36*
X131747571Y-66041845D02*
G01*
X131814589Y-66061602D01*
X131860288Y-66114455D01*
X131870157Y-66183624D01*
X131846705Y-66240156D01*
X131775204Y-66335669D01*
X131775202Y-66335671D01*
X131724908Y-66470517D01*
X131721321Y-66503887D01*
X131718501Y-66530123D01*
X131718500Y-66530135D01*
X131718500Y-67525870D01*
X131718501Y-67525876D01*
X131724908Y-67585483D01*
X131775202Y-67720328D01*
X131775206Y-67720335D01*
X131861452Y-67835544D01*
X131861455Y-67835547D01*
X131976664Y-67921793D01*
X131976671Y-67921797D01*
X132111517Y-67972091D01*
X132111516Y-67972091D01*
X132118444Y-67972835D01*
X132171127Y-67978500D01*
X133018902Y-67978499D01*
X133085941Y-67998183D01*
X133106583Y-68014818D01*
X133856181Y-68764416D01*
X133889666Y-68825739D01*
X133892500Y-68852097D01*
X133892500Y-69253500D01*
X133872815Y-69320539D01*
X133820011Y-69366294D01*
X133768500Y-69377500D01*
X132171129Y-69377500D01*
X132171123Y-69377501D01*
X132111516Y-69383908D01*
X131976671Y-69434202D01*
X131976664Y-69434206D01*
X131861455Y-69520452D01*
X131861452Y-69520455D01*
X131775206Y-69635664D01*
X131775204Y-69635668D01*
X131775204Y-69635669D01*
X131771039Y-69646834D01*
X131729171Y-69702766D01*
X131663707Y-69727184D01*
X131654859Y-69727500D01*
X130855670Y-69727500D01*
X130855654Y-69727499D01*
X130848058Y-69727499D01*
X130689943Y-69727499D01*
X130613579Y-69747961D01*
X130537214Y-69768423D01*
X130537209Y-69768426D01*
X130400290Y-69847475D01*
X130400282Y-69847481D01*
X129530681Y-70717082D01*
X129469358Y-70750567D01*
X129399666Y-70745583D01*
X129343733Y-70703711D01*
X129319316Y-70638247D01*
X129319000Y-70629401D01*
X129319000Y-70578000D01*
X128319000Y-70578000D01*
X128319000Y-71278000D01*
X128670401Y-71278000D01*
X128737440Y-71297685D01*
X128783195Y-71350489D01*
X128793139Y-71419647D01*
X128764114Y-71483203D01*
X128758082Y-71489681D01*
X128206582Y-72041181D01*
X128145259Y-72074666D01*
X128118901Y-72077500D01*
X127271129Y-72077500D01*
X127271120Y-72077501D01*
X127229752Y-72081948D01*
X127160993Y-72069540D01*
X127109857Y-72021929D01*
X127092500Y-71958658D01*
X127092500Y-71396836D01*
X127112185Y-71329797D01*
X127164989Y-71284042D01*
X127229758Y-71273547D01*
X127271160Y-71277999D01*
X127271172Y-71278000D01*
X127819000Y-71278000D01*
X127819000Y-70078000D01*
X128319000Y-70078000D01*
X129319000Y-70078000D01*
X129319000Y-69830172D01*
X129318999Y-69830155D01*
X129312598Y-69770627D01*
X129312596Y-69770620D01*
X129262354Y-69635913D01*
X129262350Y-69635906D01*
X129176190Y-69520812D01*
X129176187Y-69520809D01*
X129061093Y-69434649D01*
X129061086Y-69434645D01*
X128926379Y-69384403D01*
X128926372Y-69384401D01*
X128866844Y-69378000D01*
X128319000Y-69378000D01*
X128319000Y-70078000D01*
X127819000Y-70078000D01*
X127819000Y-69378000D01*
X127271155Y-69378000D01*
X127229756Y-69382452D01*
X127160996Y-69370047D01*
X127109859Y-69322437D01*
X127092500Y-69259163D01*
X127092500Y-68905097D01*
X127112185Y-68838058D01*
X127128819Y-68817416D01*
X127931417Y-68014818D01*
X127992740Y-67981333D01*
X128019098Y-67978499D01*
X128866871Y-67978499D01*
X128866872Y-67978499D01*
X128926483Y-67972091D01*
X129061331Y-67921796D01*
X129176546Y-67835546D01*
X129262796Y-67720331D01*
X129313091Y-67585483D01*
X129319500Y-67525873D01*
X129319499Y-66530128D01*
X129313091Y-66470517D01*
X129294632Y-66421027D01*
X129262797Y-66335671D01*
X129262795Y-66335668D01*
X129222835Y-66282288D01*
X129189320Y-66237518D01*
X129164903Y-66172055D01*
X129179754Y-66103782D01*
X129229159Y-66054376D01*
X129288716Y-66039208D01*
X131747571Y-66041845D01*
G37*
%TD.AperFunction*%
%TD*%
M02*
